M48
; DRILL file {KiCad (6.0.1)} date Mon Jun 13 19:40:09 2022
; FORMAT={-:-/ absolute / metric / decimal}
; #@! TF.CreationDate,2022-06-13T19:40:09+02:00
; #@! TF.GenerationSoftware,Kicad,Pcbnew,(6.0.1)
; #@! TF.FileFunction,Plated,1,2,PTH
FMAT,2
METRIC
; #@! TA.AperFunction,Plated,PTH,ViaDrill
T1C0.400
; #@! TA.AperFunction,Plated,PTH,ComponentDrill
T2C1.000
; #@! TA.AperFunction,Plated,PTH,ComponentDrill
T3C1.200
; #@! TA.AperFunction,Plated,PTH,ComponentDrill
T4C2.200
%
G90
G05
T1
X92.6Y-93.8
X92.6Y-94.8
X92.6Y-95.8
X96.6Y-104.8
X96.6Y-106.6
X97.6Y-104.8
X97.6Y-106.6
X98.6Y-104.8
X98.6Y-106.6
X103.4Y-90.6
X105.2Y-107.4
X112.4Y-110.8
X119.6Y-90.8
X123.6Y-112.8
X125.2Y-100.8
X125.2Y-101.8
X125.2Y-102.8
X125.2Y-103.8
X130.45Y-92.95
X136.6Y-107.8
X147.4Y-103.6
X147.4Y-112.0
X148.6Y-90.4
X149.2Y-102.0
X149.8Y-107.6
X153.031Y-105.231
X153.4Y-100.2
X154.0Y-110.8
X154.4Y-106.2
X159.2Y-90.6
X159.2Y-93.0
X159.2Y-95.4
T2
X90.85Y-110.8
X93.39Y-110.8
X95.93Y-110.8
X98.47Y-110.8
X101.01Y-110.8
X103.55Y-110.8
X128.95Y-110.8
X131.49Y-110.8
X134.03Y-110.8
X136.57Y-110.8
X139.11Y-110.8
T3
X161.267Y-98.962
X161.267Y-104.042
T4
X108.0Y-92.0
X108.0Y-111.0
X165.0Y-92.0
X165.0Y-111.0
T0
M30
