%TF.GenerationSoftware,KiCad,Pcbnew,(6.0.1)*%
%TF.CreationDate,2022-06-13T19:43:20+02:00*%
%TF.ProjectId,Buck IRS25411,4275636b-2049-4525-9332-353431312e6b,rev?*%
%TF.SameCoordinates,Original*%
%TF.FileFunction,Paste,Top*%
%TF.FilePolarity,Positive*%
%FSLAX46Y46*%
G04 Gerber Fmt 4.6, Leading zero omitted, Abs format (unit mm)*
G04 Created by KiCad (PCBNEW (6.0.1)) date 2022-06-13 19:43:20*
%MOMM*%
%LPD*%
G01*
G04 APERTURE LIST*
G04 Aperture macros list*
%AMRoundRect*
0 Rectangle with rounded corners*
0 $1 Rounding radius*
0 $2 $3 $4 $5 $6 $7 $8 $9 X,Y pos of 4 corners*
0 Add a 4 corners polygon primitive as box body*
4,1,4,$2,$3,$4,$5,$6,$7,$8,$9,$2,$3,0*
0 Add four circle primitives for the rounded corners*
1,1,$1+$1,$2,$3*
1,1,$1+$1,$4,$5*
1,1,$1+$1,$6,$7*
1,1,$1+$1,$8,$9*
0 Add four rect primitives between the rounded corners*
20,1,$1+$1,$2,$3,$4,$5,0*
20,1,$1+$1,$4,$5,$6,$7,0*
20,1,$1+$1,$6,$7,$8,$9,0*
20,1,$1+$1,$8,$9,$2,$3,0*%
G04 Aperture macros list end*
%ADD10RoundRect,0.250000X0.337500X0.475000X-0.337500X0.475000X-0.337500X-0.475000X0.337500X-0.475000X0*%
%ADD11RoundRect,0.237500X-0.250000X-0.237500X0.250000X-0.237500X0.250000X0.237500X-0.250000X0.237500X0*%
%ADD12RoundRect,0.237500X0.250000X0.237500X-0.250000X0.237500X-0.250000X-0.237500X0.250000X-0.237500X0*%
%ADD13R,0.750000X0.500000*%
%ADD14R,1.500000X1.500000*%
%ADD15R,0.750000X0.400000*%
%ADD16RoundRect,0.250001X-0.462499X-0.624999X0.462499X-0.624999X0.462499X0.624999X-0.462499X0.624999X0*%
%ADD17RoundRect,0.250001X0.462499X0.624999X-0.462499X0.624999X-0.462499X-0.624999X0.462499X-0.624999X0*%
%ADD18RoundRect,0.250000X-0.475000X0.337500X-0.475000X-0.337500X0.475000X-0.337500X0.475000X0.337500X0*%
%ADD19R,2.000000X3.000000*%
%ADD20R,5.400000X2.900000*%
%ADD21RoundRect,0.250000X-0.537500X-0.425000X0.537500X-0.425000X0.537500X0.425000X-0.537500X0.425000X0*%
%ADD22RoundRect,0.250000X-0.425000X0.537500X-0.425000X-0.537500X0.425000X-0.537500X0.425000X0.537500X0*%
%ADD23RoundRect,0.237500X0.300000X0.237500X-0.300000X0.237500X-0.300000X-0.237500X0.300000X-0.237500X0*%
%ADD24R,3.500000X1.800000*%
%ADD25R,1.100000X1.100000*%
%ADD26RoundRect,0.150000X0.587500X0.150000X-0.587500X0.150000X-0.587500X-0.150000X0.587500X-0.150000X0*%
%ADD27RoundRect,0.250000X0.400000X0.625000X-0.400000X0.625000X-0.400000X-0.625000X0.400000X-0.625000X0*%
%ADD28RoundRect,0.237500X-0.237500X0.250000X-0.237500X-0.250000X0.237500X-0.250000X0.237500X0.250000X0*%
%ADD29RoundRect,0.237500X0.237500X-0.250000X0.237500X0.250000X-0.237500X0.250000X-0.237500X-0.250000X0*%
%ADD30RoundRect,0.150000X-0.825000X-0.150000X0.825000X-0.150000X0.825000X0.150000X-0.825000X0.150000X0*%
%ADD31RoundRect,0.150000X0.150000X-0.825000X0.150000X0.825000X-0.150000X0.825000X-0.150000X-0.825000X0*%
%ADD32RoundRect,0.250000X0.412500X0.650000X-0.412500X0.650000X-0.412500X-0.650000X0.412500X-0.650000X0*%
%ADD33RoundRect,0.250000X-0.650000X0.412500X-0.650000X-0.412500X0.650000X-0.412500X0.650000X0.412500X0*%
G04 APERTURE END LIST*
D10*
%TO.C,C8*%
X151637500Y-90800000D03*
X149562500Y-90800000D03*
%TD*%
D11*
%TO.C,R16*%
X154087500Y-109600000D03*
X155912500Y-109600000D03*
%TD*%
D12*
%TO.C,R15*%
X102112500Y-90600000D03*
X100287500Y-90600000D03*
%TD*%
D13*
%TO.C,Q2*%
X132255000Y-105305000D03*
D14*
X129150000Y-102550000D03*
X129150000Y-104250000D03*
D13*
X132255000Y-104035000D03*
X132255000Y-102765000D03*
X132255000Y-101495000D03*
D14*
X130850000Y-102550000D03*
X130850000Y-104250000D03*
D15*
X126450000Y-101495000D03*
X126450000Y-102765000D03*
X126450000Y-104035000D03*
X126450000Y-105305000D03*
%TD*%
D16*
%TO.C,D4*%
X157712500Y-109600000D03*
X160687500Y-109600000D03*
%TD*%
D17*
%TO.C,D3*%
X97687500Y-90600000D03*
X94712500Y-90600000D03*
%TD*%
D18*
%TO.C,C10*%
X157400000Y-103562500D03*
X157400000Y-105637500D03*
%TD*%
%TO.C,C5*%
X121000000Y-104912500D03*
X121000000Y-106987500D03*
%TD*%
%TO.C,C3*%
X111000000Y-104762500D03*
X111000000Y-106837500D03*
%TD*%
%TO.C,C2*%
X153600000Y-101762500D03*
X153600000Y-103837500D03*
%TD*%
D19*
%TO.C,J1*%
X94600000Y-94700000D03*
X100600000Y-94700000D03*
X100600000Y-105700000D03*
X94600000Y-105700000D03*
%TD*%
D20*
%TO.C,L1*%
X140000000Y-91950000D03*
X140000000Y-101650000D03*
%TD*%
D21*
%TO.C,C13*%
X157637500Y-90600000D03*
X154762500Y-90600000D03*
%TD*%
%TO.C,C12*%
X157637500Y-93000000D03*
X154762500Y-93000000D03*
%TD*%
%TO.C,C11*%
X157637500Y-95400000D03*
X154762500Y-95400000D03*
%TD*%
%TO.C,C9*%
X157637500Y-97800000D03*
X154762500Y-97800000D03*
%TD*%
D22*
%TO.C,C1*%
X108800000Y-104362500D03*
X108800000Y-107237500D03*
%TD*%
D23*
%TO.C,C4*%
X115462500Y-110800000D03*
X113737500Y-110800000D03*
%TD*%
D24*
%TO.C,D2*%
X118900000Y-101400000D03*
X113900000Y-101400000D03*
%TD*%
D25*
%TO.C,D1*%
X106400000Y-104600000D03*
X106400000Y-107400000D03*
%TD*%
D26*
%TO.C,Q3*%
X139337500Y-106750000D03*
X139337500Y-104850000D03*
X137462500Y-105800000D03*
%TD*%
D27*
%TO.C,R5*%
X130350000Y-90800000D03*
X127250000Y-90800000D03*
%TD*%
D28*
%TO.C,R1*%
X111000000Y-101287500D03*
X111000000Y-103112500D03*
%TD*%
D29*
%TO.C,R3*%
X123000000Y-101512500D03*
X123000000Y-99687500D03*
%TD*%
D27*
%TO.C,R8*%
X148850000Y-93000000D03*
X151950000Y-93000000D03*
%TD*%
%TO.C,R6*%
X128350000Y-107600000D03*
X125250000Y-107600000D03*
%TD*%
D11*
%TO.C,R4*%
X123087500Y-105400000D03*
X124912500Y-105400000D03*
%TD*%
D28*
%TO.C,R7*%
X148600000Y-97512500D03*
X148600000Y-95687500D03*
%TD*%
%TO.C,R10*%
X152000000Y-97512500D03*
X152000000Y-95687500D03*
%TD*%
%TO.C,R11*%
X155600000Y-101912500D03*
X155600000Y-100087500D03*
%TD*%
D11*
%TO.C,R13*%
X151912500Y-108800000D03*
X150087500Y-108800000D03*
%TD*%
D27*
%TO.C,R14*%
X148850000Y-112000000D03*
X151950000Y-112000000D03*
%TD*%
D12*
%TO.C,R2*%
X118912500Y-110800000D03*
X117087500Y-110800000D03*
%TD*%
D28*
%TO.C,R9*%
X135400000Y-105887500D03*
X135400000Y-107712500D03*
%TD*%
D30*
%TO.C,U2*%
X113525000Y-104895000D03*
X113525000Y-106165000D03*
X113525000Y-107435000D03*
X113525000Y-108705000D03*
X118475000Y-108705000D03*
X118475000Y-107435000D03*
X118475000Y-106165000D03*
X118475000Y-104895000D03*
%TD*%
D26*
%TO.C,U3*%
X147937500Y-109750000D03*
X147937500Y-107850000D03*
X146062500Y-108800000D03*
%TD*%
D31*
%TO.C,U1*%
X147895000Y-100325000D03*
X149165000Y-100325000D03*
X150435000Y-100325000D03*
X151705000Y-100325000D03*
X151705000Y-105275000D03*
X150435000Y-105275000D03*
X149165000Y-105275000D03*
X147895000Y-105275000D03*
%TD*%
D13*
%TO.C,Q1*%
X132305000Y-97035000D03*
X132305000Y-98305000D03*
D14*
X130900000Y-95550000D03*
X130900000Y-97250000D03*
X129200000Y-97250000D03*
D13*
X132305000Y-94495000D03*
X132305000Y-95765000D03*
D14*
X129200000Y-95550000D03*
D15*
X126500000Y-94495000D03*
X126500000Y-95765000D03*
X126500000Y-97035000D03*
X126500000Y-98305000D03*
%TD*%
D32*
%TO.C,C6*%
X124362500Y-90800000D03*
X121237500Y-90800000D03*
%TD*%
D33*
%TO.C,C7*%
X125200000Y-109637500D03*
X125200000Y-112762500D03*
%TD*%
D28*
%TO.C,R12*%
X155600000Y-105512500D03*
X155600000Y-103687500D03*
%TD*%
M02*
