%TF.GenerationSoftware,KiCad,Pcbnew,(6.0.1)*%
%TF.CreationDate,2022-06-13T19:43:20+02:00*%
%TF.ProjectId,Buck IRS25411,4275636b-2049-4525-9332-353431312e6b,rev?*%
%TF.SameCoordinates,Original*%
%TF.FileFunction,Copper,L2,Bot*%
%TF.FilePolarity,Positive*%
%FSLAX46Y46*%
G04 Gerber Fmt 4.6, Leading zero omitted, Abs format (unit mm)*
G04 Created by KiCad (PCBNEW (6.0.1)) date 2022-06-13 19:43:20*
%MOMM*%
%LPD*%
G01*
G04 APERTURE LIST*
G04 Aperture macros list*
%AMRoundRect*
0 Rectangle with rounded corners*
0 $1 Rounding radius*
0 $2 $3 $4 $5 $6 $7 $8 $9 X,Y pos of 4 corners*
0 Add a 4 corners polygon primitive as box body*
4,1,4,$2,$3,$4,$5,$6,$7,$8,$9,$2,$3,0*
0 Add four circle primitives for the rounded corners*
1,1,$1+$1,$2,$3*
1,1,$1+$1,$4,$5*
1,1,$1+$1,$6,$7*
1,1,$1+$1,$8,$9*
0 Add four rect primitives between the rounded corners*
20,1,$1+$1,$2,$3,$4,$5,0*
20,1,$1+$1,$4,$5,$6,$7,0*
20,1,$1+$1,$6,$7,$8,$9,0*
20,1,$1+$1,$8,$9,$2,$3,0*%
G04 Aperture macros list end*
%TA.AperFunction,ConnectorPad*%
%ADD10C,3.800000*%
%TD*%
%TA.AperFunction,ComponentPad*%
%ADD11C,2.600000*%
%TD*%
%TA.AperFunction,ComponentPad*%
%ADD12R,1.700000X1.700000*%
%TD*%
%TA.AperFunction,ComponentPad*%
%ADD13O,1.700000X1.700000*%
%TD*%
%TA.AperFunction,ComponentPad*%
%ADD14RoundRect,0.250000X1.550000X-0.650000X1.550000X0.650000X-1.550000X0.650000X-1.550000X-0.650000X0*%
%TD*%
%TA.AperFunction,ComponentPad*%
%ADD15O,3.600000X1.800000*%
%TD*%
%TA.AperFunction,ViaPad*%
%ADD16C,0.800000*%
%TD*%
%TA.AperFunction,Conductor*%
%ADD17C,0.250000*%
%TD*%
G04 APERTURE END LIST*
D10*
%TO.P,H4,1,1*%
%TO.N,GND*%
X165000000Y-92000000D03*
D11*
X165000000Y-92000000D03*
%TD*%
D10*
%TO.P,H3,1,1*%
%TO.N,GND*%
X165000000Y-111000000D03*
D11*
X165000000Y-111000000D03*
%TD*%
D10*
%TO.P,H2,1,1*%
%TO.N,GND*%
X108000000Y-111000000D03*
D11*
X108000000Y-111000000D03*
%TD*%
D10*
%TO.P,H1,1,1*%
%TO.N,GND*%
X108000000Y-92000000D03*
D11*
X108000000Y-92000000D03*
%TD*%
D12*
%TO.P,J3,1,Pin_1*%
%TO.N,GND*%
X103550000Y-110800000D03*
D13*
%TO.P,J3,2,Pin_2*%
%TO.N,+VDC*%
X101010000Y-110800000D03*
%TO.P,J3,3,Pin_3*%
X98470000Y-110800000D03*
%TO.P,J3,4,Pin_4*%
%TO.N,unconnected-(J3-Pad4)*%
X95930000Y-110800000D03*
%TO.P,J3,5,Pin_5*%
%TO.N,unconnected-(J3-Pad5)*%
X93390000Y-110800000D03*
%TO.P,J3,6,Pin_6*%
%TO.N,/RC*%
X90850000Y-110800000D03*
%TD*%
D12*
%TO.P,J2,1,Pin_1*%
%TO.N,/Uout*%
X139110000Y-110800000D03*
D13*
%TO.P,J2,2,Pin_2*%
X136570000Y-110800000D03*
%TO.P,J2,3,Pin_3*%
X134030000Y-110800000D03*
%TO.P,J2,4,Pin_4*%
X131490000Y-110800000D03*
%TO.P,J2,5,Pin_5*%
%TO.N,GND*%
X128950000Y-110800000D03*
%TD*%
D14*
%TO.P,J4,1,Pin_1*%
%TO.N,Net-(J4-Pad1)*%
X161267500Y-104042500D03*
D15*
%TO.P,J4,2,Pin_2*%
%TO.N,/Uout*%
X161267500Y-98962500D03*
%TD*%
D16*
%TO.N,+VDC*%
X92600000Y-95800000D03*
X92600000Y-94800000D03*
X92600000Y-93800000D03*
%TO.N,GND*%
X136600000Y-107800000D03*
X147400000Y-112000000D03*
X154000000Y-110800000D03*
X154400000Y-106200000D03*
%TO.N,/Uout*%
X149800000Y-107600000D03*
%TO.N,Net-(Q3-Pad1)*%
X147400000Y-103600000D03*
X149200000Y-102000000D03*
%TO.N,GND*%
X153031450Y-105231450D03*
%TO.N,+VDC*%
X153400000Y-100200000D03*
X130450000Y-92950000D03*
%TO.N,GND*%
X159200000Y-90600000D03*
X159200000Y-93000000D03*
X159200000Y-95400000D03*
X148600000Y-90400000D03*
X98600000Y-104800000D03*
X97600000Y-104800000D03*
X96600000Y-104800000D03*
X98600000Y-106600000D03*
X97600000Y-106600000D03*
X96600000Y-106600000D03*
X119600000Y-90800000D03*
X125200000Y-100800000D03*
X125200000Y-101800000D03*
X125200000Y-102800000D03*
X125200000Y-103800000D03*
X123600000Y-112800000D03*
X112400000Y-110800000D03*
X105200000Y-107400000D03*
X103400000Y-90600000D03*
%TD*%
D17*
%TO.N,/Uout*%
X162600000Y-107600000D02*
X149800000Y-107600000D01*
X163000000Y-107200000D02*
X162600000Y-107600000D01*
X165000000Y-105200000D02*
X163000000Y-107200000D01*
X165000000Y-102695000D02*
X165000000Y-103000000D01*
X165000000Y-103000000D02*
X165000000Y-105200000D01*
X161267500Y-98962500D02*
X165000000Y-102695000D01*
%TO.N,Net-(Q3-Pad1)*%
X149000000Y-102000000D02*
X147400000Y-103600000D01*
X149200000Y-102000000D02*
X149000000Y-102000000D01*
%TO.N,+VDC*%
X146150000Y-92950000D02*
X153400000Y-100200000D01*
X130450000Y-92950000D02*
X146150000Y-92950000D01*
%TD*%
%TA.AperFunction,Conductor*%
%TO.N,GND*%
G36*
X165984608Y-89301914D02*
G01*
X166000000Y-89304628D01*
X166010855Y-89302714D01*
X166021361Y-89302714D01*
X166034476Y-89301936D01*
X166295243Y-89316580D01*
X166309275Y-89318161D01*
X166451555Y-89342336D01*
X166593830Y-89366510D01*
X166607605Y-89369654D01*
X166884955Y-89449557D01*
X166898292Y-89454224D01*
X167062003Y-89522035D01*
X167164953Y-89564678D01*
X167177676Y-89570805D01*
X167329009Y-89654444D01*
X167430294Y-89710423D01*
X167442257Y-89717940D01*
X167677648Y-89884958D01*
X167688696Y-89893768D01*
X167903912Y-90086097D01*
X167913903Y-90096088D01*
X168106232Y-90311304D01*
X168115042Y-90322352D01*
X168282060Y-90557743D01*
X168289577Y-90569706D01*
X168429193Y-90822320D01*
X168435324Y-90835051D01*
X168545776Y-91101708D01*
X168550443Y-91115045D01*
X168630346Y-91392395D01*
X168633490Y-91406170D01*
X168671727Y-91631210D01*
X168681838Y-91690720D01*
X168683420Y-91704761D01*
X168698064Y-91965522D01*
X168697286Y-91978639D01*
X168697286Y-91989145D01*
X168695372Y-92000000D01*
X168697286Y-92010855D01*
X168698086Y-92015392D01*
X168700000Y-92037271D01*
X168700000Y-110962729D01*
X168698086Y-110984608D01*
X168695372Y-111000000D01*
X168697286Y-111010855D01*
X168697286Y-111021361D01*
X168698064Y-111034476D01*
X168683420Y-111295239D01*
X168681839Y-111309275D01*
X168663230Y-111418794D01*
X168633490Y-111593830D01*
X168630346Y-111607605D01*
X168550443Y-111884955D01*
X168545776Y-111898292D01*
X168513031Y-111977347D01*
X168438203Y-112157999D01*
X168435324Y-112164949D01*
X168429195Y-112177676D01*
X168383543Y-112260277D01*
X168289577Y-112430294D01*
X168282060Y-112442257D01*
X168235307Y-112508150D01*
X168120833Y-112669487D01*
X168115042Y-112677648D01*
X168106232Y-112688696D01*
X167913903Y-112903912D01*
X167903912Y-112913903D01*
X167688696Y-113106232D01*
X167677648Y-113115042D01*
X167442257Y-113282060D01*
X167430294Y-113289577D01*
X167329009Y-113345556D01*
X167177676Y-113429195D01*
X167164953Y-113435322D01*
X167062003Y-113477965D01*
X166898292Y-113545776D01*
X166884955Y-113550443D01*
X166607605Y-113630346D01*
X166593830Y-113633490D01*
X166451555Y-113657664D01*
X166309275Y-113681839D01*
X166295243Y-113683420D01*
X166034476Y-113698064D01*
X166021361Y-113697286D01*
X166010855Y-113697286D01*
X166000000Y-113695372D01*
X165989145Y-113697286D01*
X165984608Y-113698086D01*
X165962729Y-113700000D01*
X92037271Y-113700000D01*
X92015392Y-113698086D01*
X92010855Y-113697286D01*
X92000000Y-113695372D01*
X91989145Y-113697286D01*
X91978639Y-113697286D01*
X91965524Y-113698064D01*
X91704757Y-113683420D01*
X91690725Y-113681839D01*
X91548445Y-113657664D01*
X91406170Y-113633490D01*
X91392395Y-113630346D01*
X91115045Y-113550443D01*
X91101708Y-113545776D01*
X90937997Y-113477965D01*
X90835047Y-113435322D01*
X90822324Y-113429195D01*
X90670991Y-113345556D01*
X90569706Y-113289577D01*
X90557743Y-113282060D01*
X90322352Y-113115042D01*
X90311304Y-113106232D01*
X90096088Y-112913903D01*
X90086097Y-112903912D01*
X90059718Y-112874394D01*
X106490314Y-112874394D01*
X106499143Y-112886014D01*
X106703970Y-113034830D01*
X106710650Y-113039070D01*
X106969234Y-113181228D01*
X106976369Y-113184585D01*
X107250746Y-113293219D01*
X107258237Y-113295653D01*
X107544059Y-113369039D01*
X107551830Y-113370521D01*
X107844570Y-113407503D01*
X107852460Y-113408000D01*
X108147540Y-113408000D01*
X108155430Y-113407503D01*
X108448170Y-113370521D01*
X108455941Y-113369039D01*
X108741763Y-113295653D01*
X108749254Y-113293219D01*
X109023631Y-113184585D01*
X109030766Y-113181228D01*
X109289350Y-113039070D01*
X109296030Y-113034830D01*
X109501230Y-112885744D01*
X109509653Y-112874821D01*
X109509424Y-112874394D01*
X163490314Y-112874394D01*
X163499143Y-112886014D01*
X163703970Y-113034830D01*
X163710650Y-113039070D01*
X163969234Y-113181228D01*
X163976369Y-113184585D01*
X164250746Y-113293219D01*
X164258237Y-113295653D01*
X164544059Y-113369039D01*
X164551830Y-113370521D01*
X164844570Y-113407503D01*
X164852460Y-113408000D01*
X165147540Y-113408000D01*
X165155430Y-113407503D01*
X165448170Y-113370521D01*
X165455941Y-113369039D01*
X165741763Y-113295653D01*
X165749254Y-113293219D01*
X166023631Y-113184585D01*
X166030766Y-113181228D01*
X166289350Y-113039070D01*
X166296030Y-113034830D01*
X166501230Y-112885744D01*
X166509653Y-112874821D01*
X166502749Y-112861960D01*
X165012810Y-111372020D01*
X164998869Y-111364408D01*
X164997034Y-111364539D01*
X164990420Y-111368790D01*
X163496927Y-112862284D01*
X163490314Y-112874394D01*
X109509424Y-112874394D01*
X109502749Y-112861960D01*
X108012810Y-111372020D01*
X107998869Y-111364408D01*
X107997034Y-111364539D01*
X107990420Y-111368790D01*
X106496927Y-112862284D01*
X106490314Y-112874394D01*
X90059718Y-112874394D01*
X89893768Y-112688696D01*
X89884958Y-112677648D01*
X89879168Y-112669487D01*
X89764693Y-112508150D01*
X89717940Y-112442257D01*
X89710423Y-112430294D01*
X89616457Y-112260277D01*
X89570805Y-112177676D01*
X89564676Y-112164949D01*
X89561798Y-112157999D01*
X89486969Y-111977347D01*
X89454224Y-111898292D01*
X89449557Y-111884955D01*
X89369654Y-111607605D01*
X89366510Y-111593830D01*
X89336770Y-111418794D01*
X89318161Y-111309275D01*
X89316580Y-111295239D01*
X89301936Y-111034476D01*
X89302714Y-111021361D01*
X89302714Y-111010855D01*
X89304628Y-111000000D01*
X89301914Y-110984608D01*
X89300000Y-110962729D01*
X89300000Y-104171717D01*
X89320002Y-104103596D01*
X89373658Y-104057103D01*
X89443932Y-104046999D01*
X89508512Y-104076493D01*
X89539160Y-104118599D01*
X89539577Y-104118371D01*
X89539702Y-104118599D01*
X89542544Y-104123804D01*
X89567812Y-104170077D01*
X89573603Y-104180683D01*
X89576298Y-104184283D01*
X89622076Y-104245435D01*
X89622080Y-104245440D01*
X89624773Y-104249037D01*
X94750963Y-109375227D01*
X94774847Y-109396682D01*
X94795821Y-109413585D01*
X94850141Y-109442000D01*
X94884773Y-109460116D01*
X94899550Y-109467846D01*
X94905488Y-109469589D01*
X94905489Y-109469590D01*
X94955519Y-109484280D01*
X94967671Y-109487848D01*
X94972111Y-109488486D01*
X94972114Y-109488487D01*
X95047744Y-109499361D01*
X95047747Y-109499361D01*
X95052190Y-109500000D01*
X95423971Y-109500000D01*
X95492092Y-109520002D01*
X95538585Y-109573658D01*
X95548689Y-109643932D01*
X95519195Y-109708512D01*
X95467582Y-109744212D01*
X95432575Y-109757127D01*
X95427614Y-109760079D01*
X95427613Y-109760079D01*
X95280421Y-109847649D01*
X95250856Y-109865238D01*
X95091881Y-110004655D01*
X94960976Y-110170708D01*
X94958287Y-110175819D01*
X94958285Y-110175822D01*
X94908400Y-110270638D01*
X94862523Y-110357836D01*
X94799820Y-110559773D01*
X94799141Y-110565510D01*
X94785088Y-110684239D01*
X94757217Y-110749537D01*
X94698469Y-110789401D01*
X94627494Y-110791174D01*
X94566828Y-110754295D01*
X94535730Y-110690471D01*
X94534490Y-110680958D01*
X94526610Y-110595197D01*
X94526081Y-110589440D01*
X94513359Y-110544329D01*
X94508690Y-110527775D01*
X94468686Y-110385931D01*
X94459692Y-110367692D01*
X94377719Y-110201469D01*
X94375165Y-110196290D01*
X94248651Y-110026867D01*
X94117171Y-109905328D01*
X94097622Y-109887257D01*
X94097620Y-109887255D01*
X94093381Y-109883337D01*
X93914554Y-109770505D01*
X93718160Y-109692152D01*
X93712503Y-109691027D01*
X93712497Y-109691025D01*
X93516442Y-109652028D01*
X93516440Y-109652028D01*
X93510775Y-109650901D01*
X93505000Y-109650825D01*
X93504996Y-109650825D01*
X93398976Y-109649437D01*
X93299346Y-109648133D01*
X93293649Y-109649112D01*
X93293648Y-109649112D01*
X93096650Y-109682962D01*
X93096649Y-109682962D01*
X93090953Y-109683941D01*
X92892575Y-109757127D01*
X92887614Y-109760079D01*
X92887613Y-109760079D01*
X92740421Y-109847649D01*
X92710856Y-109865238D01*
X92551881Y-110004655D01*
X92420976Y-110170708D01*
X92418287Y-110175819D01*
X92418285Y-110175822D01*
X92368400Y-110270638D01*
X92322523Y-110357836D01*
X92259820Y-110559773D01*
X92259141Y-110565510D01*
X92245088Y-110684239D01*
X92217217Y-110749537D01*
X92158469Y-110789401D01*
X92087494Y-110791174D01*
X92026828Y-110754295D01*
X91995730Y-110690471D01*
X91994490Y-110680958D01*
X91986610Y-110595197D01*
X91986081Y-110589440D01*
X91973359Y-110544329D01*
X91968690Y-110527775D01*
X91928686Y-110385931D01*
X91919692Y-110367692D01*
X91837719Y-110201469D01*
X91835165Y-110196290D01*
X91708651Y-110026867D01*
X91577171Y-109905328D01*
X91557622Y-109887257D01*
X91557620Y-109887255D01*
X91553381Y-109883337D01*
X91374554Y-109770505D01*
X91178160Y-109692152D01*
X91172503Y-109691027D01*
X91172497Y-109691025D01*
X90976442Y-109652028D01*
X90976440Y-109652028D01*
X90970775Y-109650901D01*
X90965000Y-109650825D01*
X90964996Y-109650825D01*
X90858976Y-109649437D01*
X90759346Y-109648133D01*
X90753649Y-109649112D01*
X90753648Y-109649112D01*
X90556650Y-109682962D01*
X90556649Y-109682962D01*
X90550953Y-109683941D01*
X90352575Y-109757127D01*
X90347614Y-109760079D01*
X90347613Y-109760079D01*
X90200421Y-109847649D01*
X90170856Y-109865238D01*
X90011881Y-110004655D01*
X89880976Y-110170708D01*
X89878287Y-110175819D01*
X89878285Y-110175822D01*
X89828400Y-110270638D01*
X89782523Y-110357836D01*
X89719820Y-110559773D01*
X89694967Y-110769754D01*
X89708796Y-110980749D01*
X89710217Y-110986345D01*
X89710218Y-110986350D01*
X89732000Y-111072115D01*
X89760845Y-111185690D01*
X89849369Y-111377714D01*
X89971405Y-111550391D01*
X90122865Y-111697937D01*
X90127661Y-111701142D01*
X90127664Y-111701144D01*
X90227132Y-111767606D01*
X90298677Y-111815411D01*
X90303985Y-111817692D01*
X90303986Y-111817692D01*
X90487650Y-111896600D01*
X90487653Y-111896601D01*
X90492953Y-111898878D01*
X90498582Y-111900152D01*
X90498583Y-111900152D01*
X90693550Y-111944269D01*
X90693553Y-111944269D01*
X90699186Y-111945544D01*
X90704957Y-111945771D01*
X90704959Y-111945771D01*
X90766989Y-111948208D01*
X90910470Y-111953846D01*
X90916179Y-111953018D01*
X90916183Y-111953018D01*
X91114015Y-111924333D01*
X91114019Y-111924332D01*
X91119730Y-111923504D01*
X91192276Y-111898878D01*
X91314483Y-111857395D01*
X91314488Y-111857393D01*
X91319955Y-111855537D01*
X91324998Y-111852713D01*
X91499395Y-111755046D01*
X91499399Y-111755043D01*
X91504442Y-111752219D01*
X91667012Y-111617012D01*
X91802219Y-111454442D01*
X91805043Y-111449399D01*
X91805046Y-111449395D01*
X91902713Y-111274998D01*
X91902714Y-111274996D01*
X91905537Y-111269955D01*
X91907393Y-111264488D01*
X91907395Y-111264483D01*
X91954472Y-111125798D01*
X91973504Y-111069730D01*
X91974333Y-111064015D01*
X91995090Y-110920860D01*
X92024660Y-110856315D01*
X92084432Y-110818003D01*
X92155429Y-110818087D01*
X92215109Y-110856542D01*
X92244525Y-110921158D01*
X92245515Y-110930695D01*
X92248796Y-110980749D01*
X92250217Y-110986345D01*
X92250218Y-110986350D01*
X92272000Y-111072115D01*
X92300845Y-111185690D01*
X92389369Y-111377714D01*
X92511405Y-111550391D01*
X92662865Y-111697937D01*
X92667661Y-111701142D01*
X92667664Y-111701144D01*
X92767132Y-111767606D01*
X92838677Y-111815411D01*
X92843985Y-111817692D01*
X92843986Y-111817692D01*
X93027650Y-111896600D01*
X93027653Y-111896601D01*
X93032953Y-111898878D01*
X93038582Y-111900152D01*
X93038583Y-111900152D01*
X93233550Y-111944269D01*
X93233553Y-111944269D01*
X93239186Y-111945544D01*
X93244957Y-111945771D01*
X93244959Y-111945771D01*
X93306989Y-111948208D01*
X93450470Y-111953846D01*
X93456179Y-111953018D01*
X93456183Y-111953018D01*
X93654015Y-111924333D01*
X93654019Y-111924332D01*
X93659730Y-111923504D01*
X93732276Y-111898878D01*
X93854483Y-111857395D01*
X93854488Y-111857393D01*
X93859955Y-111855537D01*
X93864998Y-111852713D01*
X94039395Y-111755046D01*
X94039399Y-111755043D01*
X94044442Y-111752219D01*
X94207012Y-111617012D01*
X94342219Y-111454442D01*
X94345043Y-111449399D01*
X94345046Y-111449395D01*
X94442713Y-111274998D01*
X94442714Y-111274996D01*
X94445537Y-111269955D01*
X94447393Y-111264488D01*
X94447395Y-111264483D01*
X94494472Y-111125798D01*
X94513504Y-111069730D01*
X94514333Y-111064015D01*
X94535090Y-110920860D01*
X94564660Y-110856315D01*
X94624432Y-110818003D01*
X94695429Y-110818087D01*
X94755109Y-110856542D01*
X94784525Y-110921158D01*
X94785515Y-110930695D01*
X94788796Y-110980749D01*
X94790217Y-110986345D01*
X94790218Y-110986350D01*
X94812000Y-111072115D01*
X94840845Y-111185690D01*
X94929369Y-111377714D01*
X95051405Y-111550391D01*
X95202865Y-111697937D01*
X95207661Y-111701142D01*
X95207664Y-111701144D01*
X95307132Y-111767606D01*
X95378677Y-111815411D01*
X95383985Y-111817692D01*
X95383986Y-111817692D01*
X95567650Y-111896600D01*
X95567653Y-111896601D01*
X95572953Y-111898878D01*
X95578582Y-111900152D01*
X95578583Y-111900152D01*
X95773550Y-111944269D01*
X95773553Y-111944269D01*
X95779186Y-111945544D01*
X95784957Y-111945771D01*
X95784959Y-111945771D01*
X95846989Y-111948208D01*
X95990470Y-111953846D01*
X95996179Y-111953018D01*
X95996183Y-111953018D01*
X96194015Y-111924333D01*
X96194019Y-111924332D01*
X96199730Y-111923504D01*
X96272276Y-111898878D01*
X96394483Y-111857395D01*
X96394488Y-111857393D01*
X96399955Y-111855537D01*
X96404998Y-111852713D01*
X96579395Y-111755046D01*
X96579399Y-111755043D01*
X96584442Y-111752219D01*
X96747012Y-111617012D01*
X96882219Y-111454442D01*
X96885043Y-111449399D01*
X96885046Y-111449395D01*
X96982713Y-111274998D01*
X96982714Y-111274996D01*
X96985537Y-111269955D01*
X96987393Y-111264488D01*
X96987395Y-111264483D01*
X97034472Y-111125798D01*
X97053504Y-111069730D01*
X97054333Y-111064015D01*
X97075090Y-110920860D01*
X97104660Y-110856315D01*
X97164432Y-110818003D01*
X97235429Y-110818087D01*
X97295109Y-110856542D01*
X97324525Y-110921158D01*
X97325515Y-110930695D01*
X97328796Y-110980749D01*
X97330217Y-110986345D01*
X97330218Y-110986350D01*
X97352000Y-111072115D01*
X97380845Y-111185690D01*
X97469369Y-111377714D01*
X97591405Y-111550391D01*
X97742865Y-111697937D01*
X97747661Y-111701142D01*
X97747664Y-111701144D01*
X97847132Y-111767606D01*
X97918677Y-111815411D01*
X97923980Y-111817690D01*
X97923985Y-111817692D01*
X98005500Y-111852713D01*
X98104357Y-111895185D01*
X98159049Y-111940452D01*
X98180587Y-112008103D01*
X98180298Y-112019940D01*
X98179637Y-112029184D01*
X98181413Y-112089541D01*
X98184206Y-112098111D01*
X98184206Y-112098113D01*
X98203176Y-112156328D01*
X98215571Y-112194365D01*
X98249597Y-112256677D01*
X98252292Y-112260277D01*
X98298070Y-112321429D01*
X98298074Y-112321434D01*
X98300767Y-112325031D01*
X98350963Y-112375227D01*
X98374847Y-112396682D01*
X98395821Y-112413585D01*
X98499550Y-112467846D01*
X98505488Y-112469589D01*
X98505489Y-112469590D01*
X98544992Y-112481189D01*
X98567671Y-112487848D01*
X98572111Y-112488486D01*
X98572114Y-112488487D01*
X98647744Y-112499361D01*
X98647747Y-112499361D01*
X98652190Y-112500000D01*
X102074000Y-112500000D01*
X102137768Y-112493144D01*
X102141052Y-112492430D01*
X102141056Y-112492429D01*
X102162114Y-112487848D01*
X102190110Y-112481758D01*
X102227631Y-112470998D01*
X102286642Y-112436486D01*
X102317779Y-112418276D01*
X102317783Y-112418273D01*
X102322800Y-112415339D01*
X102376456Y-112368846D01*
X102417876Y-112324916D01*
X102467846Y-112226640D01*
X102468558Y-112227002D01*
X102509375Y-112174797D01*
X102576401Y-112151388D01*
X102596358Y-112151965D01*
X102648514Y-112157631D01*
X102655328Y-112158000D01*
X103277885Y-112158000D01*
X103293124Y-112153525D01*
X103294329Y-112152135D01*
X103296000Y-112144452D01*
X103296000Y-112139884D01*
X103804000Y-112139884D01*
X103808475Y-112155123D01*
X103809865Y-112156328D01*
X103817548Y-112157999D01*
X104444669Y-112157999D01*
X104451490Y-112157629D01*
X104502352Y-112152105D01*
X104517604Y-112148479D01*
X104638054Y-112103324D01*
X104653649Y-112094786D01*
X104755724Y-112018285D01*
X104768285Y-112005724D01*
X104844786Y-111903649D01*
X104853324Y-111888054D01*
X104898478Y-111767606D01*
X104902105Y-111752351D01*
X104907631Y-111701486D01*
X104908000Y-111694672D01*
X104908000Y-111072115D01*
X104903525Y-111056876D01*
X104902135Y-111055671D01*
X104894452Y-111054000D01*
X103822115Y-111054000D01*
X103806876Y-111058475D01*
X103805671Y-111059865D01*
X103804000Y-111067548D01*
X103804000Y-112139884D01*
X103296000Y-112139884D01*
X103296000Y-111003958D01*
X105587488Y-111003958D01*
X105606015Y-111298436D01*
X105607008Y-111306297D01*
X105662296Y-111596128D01*
X105664267Y-111603805D01*
X105755446Y-111884424D01*
X105758361Y-111891787D01*
X105883993Y-112158770D01*
X105887805Y-112165703D01*
X106045909Y-112414835D01*
X106050563Y-112421241D01*
X106115521Y-112499761D01*
X106128040Y-112508217D01*
X106138778Y-112502011D01*
X107627980Y-111012810D01*
X107634357Y-111001131D01*
X108364408Y-111001131D01*
X108364539Y-111002966D01*
X108368790Y-111009580D01*
X109860119Y-112500908D01*
X109873381Y-112508150D01*
X109883485Y-112500962D01*
X109949437Y-112421241D01*
X109954091Y-112414835D01*
X110112195Y-112165703D01*
X110116007Y-112158770D01*
X110241639Y-111891787D01*
X110244554Y-111884424D01*
X110335733Y-111603805D01*
X110337704Y-111596128D01*
X110392992Y-111306297D01*
X110393985Y-111298436D01*
X110408485Y-111067966D01*
X127618257Y-111067966D01*
X127648565Y-111202446D01*
X127651645Y-111212275D01*
X127731770Y-111409603D01*
X127736413Y-111418794D01*
X127847694Y-111600388D01*
X127853777Y-111608699D01*
X127993213Y-111769667D01*
X128000580Y-111776883D01*
X128164434Y-111912916D01*
X128172881Y-111918831D01*
X128356756Y-112026279D01*
X128366042Y-112030729D01*
X128565001Y-112106703D01*
X128574899Y-112109579D01*
X128678250Y-112130606D01*
X128692299Y-112129410D01*
X128696000Y-112119065D01*
X128696000Y-112118517D01*
X129204000Y-112118517D01*
X129208064Y-112132359D01*
X129221478Y-112134393D01*
X129228184Y-112133534D01*
X129238262Y-112131392D01*
X129442255Y-112070191D01*
X129451842Y-112066433D01*
X129643095Y-111972739D01*
X129651945Y-111967464D01*
X129700832Y-111932593D01*
X129767905Y-111909319D01*
X129836914Y-111926003D01*
X129885948Y-111977347D01*
X129900000Y-112035172D01*
X129900000Y-112274000D01*
X129906856Y-112337768D01*
X129907570Y-112341052D01*
X129907571Y-112341056D01*
X129911633Y-112359729D01*
X129918242Y-112390110D01*
X129929002Y-112427631D01*
X129932979Y-112434431D01*
X129972503Y-112502011D01*
X129984661Y-112522800D01*
X130031154Y-112576456D01*
X130075084Y-112617876D01*
X130173360Y-112667846D01*
X130178946Y-112669486D01*
X130178948Y-112669487D01*
X130226407Y-112683422D01*
X130241481Y-112687848D01*
X130245921Y-112688486D01*
X130245924Y-112688487D01*
X130321554Y-112699361D01*
X130321557Y-112699361D01*
X130326000Y-112700000D01*
X145547810Y-112700000D01*
X145549466Y-112699911D01*
X145549476Y-112699911D01*
X145572147Y-112698696D01*
X145579873Y-112698282D01*
X145581544Y-112698102D01*
X145581561Y-112698101D01*
X145595515Y-112696601D01*
X145606656Y-112695403D01*
X145718371Y-112660423D01*
X145723803Y-112657457D01*
X145723805Y-112657456D01*
X145776735Y-112628553D01*
X145776737Y-112628552D01*
X145780683Y-112626397D01*
X145800326Y-112611692D01*
X145845435Y-112577924D01*
X145845440Y-112577920D01*
X145849037Y-112575227D01*
X147420306Y-111003958D01*
X162587488Y-111003958D01*
X162606015Y-111298436D01*
X162607008Y-111306297D01*
X162662296Y-111596128D01*
X162664267Y-111603805D01*
X162755446Y-111884424D01*
X162758361Y-111891787D01*
X162883993Y-112158770D01*
X162887805Y-112165703D01*
X163045909Y-112414835D01*
X163050563Y-112421241D01*
X163115521Y-112499761D01*
X163128040Y-112508217D01*
X163138778Y-112502011D01*
X164627980Y-111012810D01*
X164634357Y-111001131D01*
X165364408Y-111001131D01*
X165364539Y-111002966D01*
X165368790Y-111009580D01*
X166860119Y-112500908D01*
X166873381Y-112508150D01*
X166883485Y-112500962D01*
X166949437Y-112421241D01*
X166954091Y-112414835D01*
X167112195Y-112165703D01*
X167116007Y-112158770D01*
X167241639Y-111891787D01*
X167244554Y-111884424D01*
X167335733Y-111603805D01*
X167337704Y-111596128D01*
X167392992Y-111306297D01*
X167393985Y-111298436D01*
X167412512Y-111003958D01*
X167412512Y-110996042D01*
X167393985Y-110701564D01*
X167392992Y-110693703D01*
X167337704Y-110403872D01*
X167335733Y-110396195D01*
X167244554Y-110115576D01*
X167241639Y-110108213D01*
X167116007Y-109841230D01*
X167112195Y-109834297D01*
X166954091Y-109585165D01*
X166949437Y-109578759D01*
X166884479Y-109500239D01*
X166871960Y-109491783D01*
X166861222Y-109497989D01*
X165372020Y-110987190D01*
X165364408Y-111001131D01*
X164634357Y-111001131D01*
X164635592Y-110998869D01*
X164635461Y-110997034D01*
X164631210Y-110990420D01*
X163139881Y-109499092D01*
X163126619Y-109491850D01*
X163116515Y-109499038D01*
X163050563Y-109578759D01*
X163045909Y-109585165D01*
X162887805Y-109834297D01*
X162883993Y-109841230D01*
X162758361Y-110108213D01*
X162755446Y-110115576D01*
X162664267Y-110396195D01*
X162662296Y-110403872D01*
X162607008Y-110693703D01*
X162606015Y-110701564D01*
X162587488Y-110996042D01*
X162587488Y-111003958D01*
X147420306Y-111003958D01*
X149299085Y-109125179D01*
X163490347Y-109125179D01*
X163497251Y-109138040D01*
X164471013Y-110111803D01*
X164987190Y-110627980D01*
X165001131Y-110635592D01*
X165002966Y-110635461D01*
X165009580Y-110631210D01*
X166503073Y-109137716D01*
X166509686Y-109125606D01*
X166500857Y-109113986D01*
X166296030Y-108965170D01*
X166289350Y-108960930D01*
X166030766Y-108818772D01*
X166023631Y-108815415D01*
X165749254Y-108706781D01*
X165741763Y-108704347D01*
X165455941Y-108630961D01*
X165448170Y-108629479D01*
X165155430Y-108592497D01*
X165147540Y-108592000D01*
X164852460Y-108592000D01*
X164844570Y-108592497D01*
X164551830Y-108629479D01*
X164544059Y-108630961D01*
X164258237Y-108704347D01*
X164250746Y-108706781D01*
X163976369Y-108815415D01*
X163969234Y-108818772D01*
X163710650Y-108960930D01*
X163703970Y-108965170D01*
X163498770Y-109114256D01*
X163490347Y-109125179D01*
X149299085Y-109125179D01*
X149687359Y-108736905D01*
X149749671Y-108702879D01*
X149776454Y-108700000D01*
X162747810Y-108700000D01*
X162749466Y-108699911D01*
X162749476Y-108699911D01*
X162772147Y-108698696D01*
X162779873Y-108698282D01*
X162781544Y-108698102D01*
X162781561Y-108698101D01*
X162795515Y-108696601D01*
X162806656Y-108695403D01*
X162918371Y-108660423D01*
X162923803Y-108657457D01*
X162923805Y-108657456D01*
X162976735Y-108628553D01*
X162976737Y-108628552D01*
X162980683Y-108626397D01*
X162987513Y-108621284D01*
X163045435Y-108577924D01*
X163045440Y-108577920D01*
X163049037Y-108575227D01*
X165775227Y-105849037D01*
X165796682Y-105825153D01*
X165813585Y-105804179D01*
X165867846Y-105700450D01*
X165887848Y-105632329D01*
X165900000Y-105547810D01*
X165900000Y-100652190D01*
X165899411Y-100641186D01*
X165898372Y-100621808D01*
X165898282Y-100620127D01*
X165895403Y-100593344D01*
X165860423Y-100481629D01*
X165833327Y-100432007D01*
X165828553Y-100423265D01*
X165828552Y-100423263D01*
X165826397Y-100419317D01*
X165782842Y-100361135D01*
X165777924Y-100354565D01*
X165777920Y-100354560D01*
X165775227Y-100350963D01*
X163685596Y-98261332D01*
X163646984Y-98230159D01*
X163638714Y-98223482D01*
X163638708Y-98223478D01*
X163636111Y-98221381D01*
X163591470Y-98192578D01*
X163557841Y-98173821D01*
X163550251Y-98171804D01*
X163550249Y-98171803D01*
X163494362Y-98156950D01*
X163451290Y-98145503D01*
X163445482Y-98145067D01*
X163445477Y-98145066D01*
X163383663Y-98140424D01*
X163383662Y-98140424D01*
X163380493Y-98140186D01*
X163377319Y-98140268D01*
X163377317Y-98140268D01*
X163329146Y-98141513D01*
X163329144Y-98141513D01*
X163320141Y-98141746D01*
X163303819Y-98147000D01*
X163220749Y-98173739D01*
X163220747Y-98173740D01*
X163215195Y-98175527D01*
X163210069Y-98178302D01*
X163210065Y-98178304D01*
X163208013Y-98179415D01*
X163206917Y-98179649D01*
X163204713Y-98180591D01*
X163204529Y-98180160D01*
X163138585Y-98194253D01*
X163072155Y-98169201D01*
X163053299Y-98151686D01*
X163001217Y-98092298D01*
X162997410Y-98087957D01*
X162992690Y-98084236D01*
X162988458Y-98080899D01*
X162947346Y-98023017D01*
X162944054Y-97952096D01*
X162950363Y-97933001D01*
X162953136Y-97926425D01*
X162957782Y-97918705D01*
X162985721Y-97812054D01*
X162990786Y-97741239D01*
X162989010Y-97680882D01*
X162954852Y-97576058D01*
X162920826Y-97513746D01*
X162915713Y-97506916D01*
X162872353Y-97448994D01*
X162872349Y-97448989D01*
X162869656Y-97445392D01*
X162649037Y-97224773D01*
X162625153Y-97203318D01*
X162604179Y-97186415D01*
X162520312Y-97142544D01*
X162505935Y-97135023D01*
X162505933Y-97135022D01*
X162500450Y-97132154D01*
X162494512Y-97130411D01*
X162494511Y-97130410D01*
X162436641Y-97113418D01*
X162436640Y-97113418D01*
X162432329Y-97112152D01*
X162427889Y-97111514D01*
X162427886Y-97111513D01*
X162352256Y-97100639D01*
X162352253Y-97100639D01*
X162347810Y-97100000D01*
X159852190Y-97100000D01*
X159850534Y-97100089D01*
X159850524Y-97100089D01*
X159827853Y-97101304D01*
X159820127Y-97101718D01*
X159818456Y-97101898D01*
X159818439Y-97101899D01*
X159804485Y-97103399D01*
X159793344Y-97104597D01*
X159681629Y-97139577D01*
X159676197Y-97142543D01*
X159676195Y-97142544D01*
X159623265Y-97171447D01*
X159619317Y-97173603D01*
X159615717Y-97176298D01*
X159554565Y-97222076D01*
X159554560Y-97222080D01*
X159550963Y-97224773D01*
X158824773Y-97950963D01*
X158803318Y-97974847D01*
X158786415Y-97995821D01*
X158783544Y-98001310D01*
X158735948Y-98092298D01*
X158732154Y-98099550D01*
X158730411Y-98105488D01*
X158730410Y-98105489D01*
X158713418Y-98163359D01*
X158712152Y-98167671D01*
X158711514Y-98172111D01*
X158711513Y-98172114D01*
X158703168Y-98230159D01*
X158700000Y-98252190D01*
X158700000Y-98642458D01*
X158700298Y-98655828D01*
X158700799Y-98667058D01*
X158721333Y-98763531D01*
X158723238Y-98768373D01*
X158723240Y-98768379D01*
X158746165Y-98826643D01*
X158747328Y-98829598D01*
X158774974Y-98883268D01*
X158781191Y-98889793D01*
X158784196Y-98894016D01*
X158807395Y-98961116D01*
X158790635Y-99030106D01*
X158787243Y-99035414D01*
X158782124Y-99040843D01*
X158778042Y-99048871D01*
X158778040Y-99048874D01*
X158739461Y-99124748D01*
X158732154Y-99139119D01*
X158730514Y-99144705D01*
X158730513Y-99144707D01*
X158715507Y-99195815D01*
X158712152Y-99207240D01*
X158700000Y-99291759D01*
X158700000Y-99947810D01*
X158701718Y-99979873D01*
X158704597Y-100006656D01*
X158739577Y-100118371D01*
X158773603Y-100180683D01*
X158776298Y-100184283D01*
X158822076Y-100245435D01*
X158822080Y-100245440D01*
X158824773Y-100249037D01*
X159350963Y-100775227D01*
X159374847Y-100796682D01*
X159395821Y-100813585D01*
X159455661Y-100844888D01*
X159469738Y-100852251D01*
X159499550Y-100867846D01*
X159505488Y-100869589D01*
X159505489Y-100869590D01*
X159563359Y-100886582D01*
X159567671Y-100887848D01*
X159572111Y-100888486D01*
X159572114Y-100888487D01*
X159647744Y-100899361D01*
X159647747Y-100899361D01*
X159652190Y-100900000D01*
X161223546Y-100900000D01*
X161291667Y-100920002D01*
X161312641Y-100936905D01*
X163008930Y-102633194D01*
X163042956Y-102695506D01*
X163037891Y-102766321D01*
X162995344Y-102823157D01*
X162928824Y-102847968D01*
X162904698Y-102847376D01*
X162889779Y-102845571D01*
X162860272Y-102842000D01*
X159674728Y-102842000D01*
X159584953Y-102852864D01*
X159577425Y-102855844D01*
X159577423Y-102855845D01*
X159508332Y-102883200D01*
X159444717Y-102908387D01*
X159324578Y-102999578D01*
X159233387Y-103119717D01*
X159177864Y-103259953D01*
X159167000Y-103349728D01*
X159167000Y-104735272D01*
X159177864Y-104825047D01*
X159233387Y-104965283D01*
X159324578Y-105085422D01*
X159444717Y-105176613D01*
X159508332Y-105201800D01*
X159577423Y-105229155D01*
X159577425Y-105229156D01*
X159584953Y-105232136D01*
X159674728Y-105243000D01*
X162828546Y-105243000D01*
X162896667Y-105263002D01*
X162943160Y-105316658D01*
X162953264Y-105386932D01*
X162923770Y-105451512D01*
X162917641Y-105458095D01*
X161912641Y-106463095D01*
X161850329Y-106497121D01*
X161823546Y-106500000D01*
X154693653Y-106500000D01*
X154660029Y-106503935D01*
X154628028Y-106507680D01*
X154628027Y-106507680D01*
X154624380Y-106508107D01*
X154620812Y-106508954D01*
X154620805Y-106508955D01*
X154571333Y-106520696D01*
X154571329Y-106520697D01*
X154567765Y-106521543D01*
X154564325Y-106522797D01*
X154564317Y-106522799D01*
X154547471Y-106528938D01*
X154532463Y-106533373D01*
X154513458Y-106537726D01*
X154452185Y-106551760D01*
X154422082Y-106554923D01*
X154399190Y-106554563D01*
X154366780Y-106554054D01*
X154336790Y-106549946D01*
X154254609Y-106528387D01*
X154251511Y-106527530D01*
X154205478Y-106514162D01*
X154202567Y-106513607D01*
X154202564Y-106513606D01*
X154162014Y-106505871D01*
X154159094Y-106505314D01*
X154102881Y-106500000D01*
X148052190Y-106500000D01*
X148050534Y-106500089D01*
X148050524Y-106500089D01*
X148027853Y-106501304D01*
X148020127Y-106501718D01*
X148018456Y-106501898D01*
X148018439Y-106501899D01*
X148004485Y-106503399D01*
X147993344Y-106504597D01*
X147881629Y-106539577D01*
X147876197Y-106542543D01*
X147876195Y-106542544D01*
X147853088Y-106555162D01*
X147819317Y-106573603D01*
X147815717Y-106576298D01*
X147754565Y-106622076D01*
X147754560Y-106622080D01*
X147750963Y-106624773D01*
X145512641Y-108863095D01*
X145450329Y-108897121D01*
X145423546Y-108900000D01*
X131657175Y-108900000D01*
X131654976Y-108900155D01*
X131654966Y-108900155D01*
X131617397Y-108902797D01*
X131617389Y-108902798D01*
X131615197Y-108902952D01*
X131613007Y-108903261D01*
X131613002Y-108903262D01*
X131581178Y-108907759D01*
X131581142Y-108907765D01*
X131580283Y-108907886D01*
X131579431Y-108908031D01*
X131579418Y-108908033D01*
X131575590Y-108908685D01*
X131563610Y-108910723D01*
X131461289Y-108951778D01*
X131401378Y-108989873D01*
X131336577Y-109045478D01*
X131102424Y-109313082D01*
X131065241Y-109366224D01*
X131063604Y-109369204D01*
X131063602Y-109369208D01*
X131060297Y-109375227D01*
X131039170Y-109413697D01*
X131038297Y-109415571D01*
X131038291Y-109415583D01*
X131027761Y-109438189D01*
X131022384Y-109449734D01*
X131002126Y-109558106D01*
X131002126Y-109629103D01*
X131004150Y-109649112D01*
X131005716Y-109664598D01*
X130992671Y-109734386D01*
X130944779Y-109785562D01*
X130815821Y-109862284D01*
X130810856Y-109865238D01*
X130651881Y-110004655D01*
X130520976Y-110170708D01*
X130518287Y-110175819D01*
X130518285Y-110175822D01*
X130444155Y-110316720D01*
X130394736Y-110367692D01*
X130325603Y-110383855D01*
X130258707Y-110360076D01*
X130217097Y-110308294D01*
X130152971Y-110160814D01*
X130148105Y-110151739D01*
X130032426Y-109972926D01*
X130026136Y-109964757D01*
X129882806Y-109807240D01*
X129875273Y-109800215D01*
X129708139Y-109668222D01*
X129699552Y-109662517D01*
X129513117Y-109559599D01*
X129503705Y-109555369D01*
X129302959Y-109484280D01*
X129292988Y-109481646D01*
X129221837Y-109468972D01*
X129208540Y-109470432D01*
X129204000Y-109484989D01*
X129204000Y-112118517D01*
X128696000Y-112118517D01*
X128696000Y-111072115D01*
X128691525Y-111056876D01*
X128690135Y-111055671D01*
X128682452Y-111054000D01*
X127633225Y-111054000D01*
X127619694Y-111057973D01*
X127618257Y-111067966D01*
X110408485Y-111067966D01*
X110412512Y-111003958D01*
X110412512Y-110996042D01*
X110393985Y-110701564D01*
X110392992Y-110693703D01*
X110362562Y-110534183D01*
X127614389Y-110534183D01*
X127615912Y-110542607D01*
X127628292Y-110546000D01*
X128677885Y-110546000D01*
X128693124Y-110541525D01*
X128694329Y-110540135D01*
X128696000Y-110532452D01*
X128696000Y-109483102D01*
X128692082Y-109469758D01*
X128677806Y-109467771D01*
X128639324Y-109473660D01*
X128629288Y-109476051D01*
X128426868Y-109542212D01*
X128417359Y-109546209D01*
X128228463Y-109644542D01*
X128219738Y-109650036D01*
X128049433Y-109777905D01*
X128041726Y-109784748D01*
X127894590Y-109938717D01*
X127888104Y-109946727D01*
X127768098Y-110122649D01*
X127763000Y-110131623D01*
X127673338Y-110324783D01*
X127669775Y-110334470D01*
X127614389Y-110534183D01*
X110362562Y-110534183D01*
X110337704Y-110403872D01*
X110335733Y-110396195D01*
X110244554Y-110115576D01*
X110241639Y-110108213D01*
X110116007Y-109841230D01*
X110112195Y-109834297D01*
X109954091Y-109585165D01*
X109949437Y-109578759D01*
X109884479Y-109500239D01*
X109871960Y-109491783D01*
X109861222Y-109497989D01*
X108372020Y-110987190D01*
X108364408Y-111001131D01*
X107634357Y-111001131D01*
X107635592Y-110998869D01*
X107635461Y-110997034D01*
X107631210Y-110990420D01*
X106139881Y-109499092D01*
X106126619Y-109491850D01*
X106116515Y-109499038D01*
X106050563Y-109578759D01*
X106045909Y-109585165D01*
X105887805Y-109834297D01*
X105883993Y-109841230D01*
X105758361Y-110108213D01*
X105755446Y-110115576D01*
X105664267Y-110396195D01*
X105662296Y-110403872D01*
X105607008Y-110693703D01*
X105606015Y-110701564D01*
X105587488Y-110996042D01*
X105587488Y-111003958D01*
X103296000Y-111003958D01*
X103296000Y-110527885D01*
X103804000Y-110527885D01*
X103808475Y-110543124D01*
X103809865Y-110544329D01*
X103817548Y-110546000D01*
X104889884Y-110546000D01*
X104905123Y-110541525D01*
X104906328Y-110540135D01*
X104907999Y-110532452D01*
X104907999Y-109905331D01*
X104907629Y-109898510D01*
X104902105Y-109847648D01*
X104898479Y-109832396D01*
X104853324Y-109711946D01*
X104844786Y-109696351D01*
X104768285Y-109594276D01*
X104755724Y-109581715D01*
X104653649Y-109505214D01*
X104638054Y-109496676D01*
X104517606Y-109451522D01*
X104502351Y-109447895D01*
X104451486Y-109442369D01*
X104444672Y-109442000D01*
X103822115Y-109442000D01*
X103806876Y-109446475D01*
X103805671Y-109447865D01*
X103804000Y-109455548D01*
X103804000Y-110527885D01*
X103296000Y-110527885D01*
X103296000Y-109460116D01*
X103291525Y-109444877D01*
X103290135Y-109443672D01*
X103282452Y-109442001D01*
X102655331Y-109442001D01*
X102648510Y-109442371D01*
X102597648Y-109447895D01*
X102582396Y-109451521D01*
X102461946Y-109496676D01*
X102446351Y-109505214D01*
X102344276Y-109581715D01*
X102331715Y-109594276D01*
X102255214Y-109696351D01*
X102246676Y-109711946D01*
X102201522Y-109832394D01*
X102197895Y-109847649D01*
X102192369Y-109898514D01*
X102192000Y-109905328D01*
X102192000Y-110080562D01*
X102171998Y-110148683D01*
X102118342Y-110195176D01*
X102048068Y-110205280D01*
X101983488Y-110175786D01*
X101965042Y-110155951D01*
X101940175Y-110122649D01*
X101868651Y-110026867D01*
X101737171Y-109905328D01*
X101717622Y-109887257D01*
X101717620Y-109887255D01*
X101713381Y-109883337D01*
X101534554Y-109770505D01*
X101530252Y-109768788D01*
X101478905Y-109720297D01*
X101462042Y-109647785D01*
X101464172Y-109618012D01*
X101464172Y-109618010D01*
X101464398Y-109614851D01*
X101463525Y-109585165D01*
X101462887Y-109563507D01*
X101462622Y-109554494D01*
X101451383Y-109520002D01*
X101430267Y-109455203D01*
X101428464Y-109449670D01*
X101408760Y-109413585D01*
X101396594Y-109391306D01*
X101396593Y-109391304D01*
X101394438Y-109387358D01*
X101376526Y-109363431D01*
X101345965Y-109322606D01*
X101345961Y-109322601D01*
X101343268Y-109319004D01*
X101249037Y-109224773D01*
X101225153Y-109203318D01*
X101204179Y-109186415D01*
X101100450Y-109132154D01*
X101094512Y-109130411D01*
X101094511Y-109130410D01*
X101076696Y-109125179D01*
X106490347Y-109125179D01*
X106497251Y-109138040D01*
X107471013Y-110111803D01*
X107987190Y-110627980D01*
X108001131Y-110635592D01*
X108002966Y-110635461D01*
X108009580Y-110631210D01*
X108528987Y-110111803D01*
X109503073Y-109137716D01*
X109509686Y-109125605D01*
X109500859Y-109113987D01*
X109296030Y-108965170D01*
X109289350Y-108960930D01*
X109030766Y-108818772D01*
X109023631Y-108815415D01*
X108749254Y-108706781D01*
X108741763Y-108704347D01*
X108455941Y-108630961D01*
X108448170Y-108629479D01*
X108155430Y-108592497D01*
X108147540Y-108592000D01*
X107852460Y-108592000D01*
X107844570Y-108592497D01*
X107551830Y-108629479D01*
X107544059Y-108630961D01*
X107258237Y-108704347D01*
X107250746Y-108706781D01*
X106976369Y-108815415D01*
X106969234Y-108818772D01*
X106710650Y-108960930D01*
X106703970Y-108965170D01*
X106498770Y-109114256D01*
X106490347Y-109125179D01*
X101076696Y-109125179D01*
X101036641Y-109113418D01*
X101036640Y-109113418D01*
X101032329Y-109112152D01*
X101027889Y-109111514D01*
X101027886Y-109111513D01*
X100952256Y-109100639D01*
X100952253Y-109100639D01*
X100947810Y-109100000D01*
X100176454Y-109100000D01*
X100108333Y-109079998D01*
X100087359Y-109063095D01*
X98449037Y-107424773D01*
X98425153Y-107403318D01*
X98404179Y-107386415D01*
X98300450Y-107332154D01*
X98294512Y-107330411D01*
X98294511Y-107330410D01*
X98236641Y-107313418D01*
X98236640Y-107313418D01*
X98232329Y-107312152D01*
X98227889Y-107311514D01*
X98227886Y-107311513D01*
X98152256Y-107300639D01*
X98152253Y-107300639D01*
X98147810Y-107300000D01*
X96976454Y-107300000D01*
X96908333Y-107279998D01*
X96887359Y-107263095D01*
X96669079Y-107044815D01*
X96606269Y-106996749D01*
X96549147Y-106963968D01*
X96475949Y-106933985D01*
X96475359Y-106933830D01*
X96457667Y-106926139D01*
X96406528Y-106898372D01*
X96381852Y-106880836D01*
X96340944Y-106843613D01*
X96321161Y-106820694D01*
X96290307Y-106774778D01*
X96276563Y-106747804D01*
X96253763Y-106685500D01*
X96224910Y-106627184D01*
X96195679Y-106581390D01*
X96191589Y-106576298D01*
X96157080Y-106533341D01*
X96154936Y-106530672D01*
X93216875Y-103592611D01*
X146694394Y-103592611D01*
X146712999Y-103761135D01*
X146771266Y-103920356D01*
X146775502Y-103926659D01*
X146775502Y-103926660D01*
X146788574Y-103946113D01*
X146865830Y-104061083D01*
X146871442Y-104066190D01*
X146871445Y-104066193D01*
X146985612Y-104170077D01*
X146985616Y-104170080D01*
X146991233Y-104175191D01*
X146997906Y-104178814D01*
X146997910Y-104178817D01*
X147133558Y-104252467D01*
X147133560Y-104252468D01*
X147140235Y-104256092D01*
X147147584Y-104258020D01*
X147296883Y-104297188D01*
X147296885Y-104297188D01*
X147304233Y-104299116D01*
X147390609Y-104300473D01*
X147466161Y-104301660D01*
X147466164Y-104301660D01*
X147473760Y-104301779D01*
X147481165Y-104300083D01*
X147481166Y-104300083D01*
X147541586Y-104286245D01*
X147639029Y-104263928D01*
X147790498Y-104187747D01*
X147919423Y-104077634D01*
X148018361Y-103939947D01*
X148026237Y-103920356D01*
X148078766Y-103789687D01*
X148078767Y-103789685D01*
X148081601Y-103782634D01*
X148105490Y-103614778D01*
X148105645Y-103600000D01*
X148104751Y-103592611D01*
X148101796Y-103568192D01*
X148113469Y-103498162D01*
X148137788Y-103463960D01*
X148893400Y-102708348D01*
X148955712Y-102674322D01*
X149014468Y-102675567D01*
X149096883Y-102697188D01*
X149096885Y-102697188D01*
X149104233Y-102699116D01*
X149190609Y-102700473D01*
X149266161Y-102701660D01*
X149266164Y-102701660D01*
X149273760Y-102701779D01*
X149281165Y-102700083D01*
X149281166Y-102700083D01*
X149341586Y-102686245D01*
X149439029Y-102663928D01*
X149590498Y-102587747D01*
X149719423Y-102477634D01*
X149818361Y-102339947D01*
X149881601Y-102182634D01*
X149905490Y-102014778D01*
X149905645Y-102000000D01*
X149885276Y-101831680D01*
X149825345Y-101673077D01*
X149729312Y-101533349D01*
X149717514Y-101522837D01*
X149608392Y-101425612D01*
X149608388Y-101425610D01*
X149602721Y-101420560D01*
X149452881Y-101341224D01*
X149288441Y-101299919D01*
X149280843Y-101299879D01*
X149280841Y-101299879D01*
X149203668Y-101299475D01*
X149118895Y-101299031D01*
X149111508Y-101300805D01*
X149111504Y-101300805D01*
X149026602Y-101321189D01*
X148954032Y-101338612D01*
X148947288Y-101342093D01*
X148947285Y-101342094D01*
X148942089Y-101344776D01*
X148803369Y-101416375D01*
X148797647Y-101421367D01*
X148797645Y-101421368D01*
X148787223Y-101430460D01*
X148675604Y-101527831D01*
X148578113Y-101666547D01*
X148516524Y-101824513D01*
X148515533Y-101832044D01*
X148513432Y-101848000D01*
X148484709Y-101912927D01*
X148477605Y-101920647D01*
X147535460Y-102862792D01*
X147473148Y-102896818D01*
X147445705Y-102899695D01*
X147390253Y-102899405D01*
X147318895Y-102899031D01*
X147311508Y-102900805D01*
X147311504Y-102900805D01*
X147213794Y-102924264D01*
X147154032Y-102938612D01*
X147147288Y-102942093D01*
X147147285Y-102942094D01*
X147022670Y-103006413D01*
X147003369Y-103016375D01*
X146997647Y-103021367D01*
X146997645Y-103021368D01*
X146935322Y-103075736D01*
X146875604Y-103127831D01*
X146778113Y-103266547D01*
X146716524Y-103424513D01*
X146715532Y-103432046D01*
X146715532Y-103432047D01*
X146697609Y-103568192D01*
X146694394Y-103592611D01*
X93216875Y-103592611D01*
X92736905Y-103112641D01*
X92702879Y-103050329D01*
X92700000Y-103023546D01*
X92700000Y-100501841D01*
X93649500Y-100501841D01*
X93664520Y-100655030D01*
X93724065Y-100852251D01*
X93820782Y-101034151D01*
X93894141Y-101124098D01*
X93947094Y-101189025D01*
X93947097Y-101189028D01*
X93950989Y-101193800D01*
X93955736Y-101197727D01*
X93955738Y-101197729D01*
X94104975Y-101321189D01*
X94104979Y-101321191D01*
X94109725Y-101325118D01*
X94290945Y-101423103D01*
X94487746Y-101484023D01*
X94493871Y-101484667D01*
X94493872Y-101484667D01*
X94686502Y-101504913D01*
X94686504Y-101504913D01*
X94692631Y-101505557D01*
X94779471Y-101497654D01*
X94891658Y-101487445D01*
X94891661Y-101487444D01*
X94897797Y-101486886D01*
X95095428Y-101428720D01*
X95277998Y-101333274D01*
X95282799Y-101329414D01*
X95282802Y-101329412D01*
X95433746Y-101208050D01*
X95433747Y-101208050D01*
X95438553Y-101204185D01*
X95570976Y-101046370D01*
X95573944Y-101040972D01*
X95573947Y-101040967D01*
X95667257Y-100871235D01*
X95670224Y-100865838D01*
X95732516Y-100669468D01*
X95733474Y-100660932D01*
X95749241Y-100520356D01*
X95750500Y-100509136D01*
X95750500Y-100200000D01*
X97794532Y-100200000D01*
X97814365Y-100426692D01*
X97815789Y-100432005D01*
X97815789Y-100432007D01*
X97860670Y-100599504D01*
X97873261Y-100646496D01*
X97875583Y-100651476D01*
X97875584Y-100651478D01*
X97966456Y-100846351D01*
X97969432Y-100852734D01*
X98099953Y-101039139D01*
X98260861Y-101200047D01*
X98447266Y-101330568D01*
X98452244Y-101332889D01*
X98452247Y-101332891D01*
X98648522Y-101424416D01*
X98653504Y-101426739D01*
X98658812Y-101428161D01*
X98658814Y-101428162D01*
X98867993Y-101484211D01*
X98867995Y-101484211D01*
X98873308Y-101485635D01*
X98972302Y-101494296D01*
X99040492Y-101500262D01*
X99040499Y-101500262D01*
X99043216Y-101500500D01*
X99156784Y-101500500D01*
X99159501Y-101500262D01*
X99159508Y-101500262D01*
X99227698Y-101494296D01*
X99326692Y-101485635D01*
X99332005Y-101484211D01*
X99332007Y-101484211D01*
X99541186Y-101428162D01*
X99541188Y-101428161D01*
X99546496Y-101426739D01*
X99551478Y-101424416D01*
X99747753Y-101332891D01*
X99747756Y-101332889D01*
X99752734Y-101330568D01*
X99939139Y-101200047D01*
X100100047Y-101039139D01*
X100230568Y-100852734D01*
X100233545Y-100846351D01*
X100324416Y-100651478D01*
X100324417Y-100651476D01*
X100326739Y-100646496D01*
X100339331Y-100599504D01*
X100384211Y-100432007D01*
X100384211Y-100432005D01*
X100385635Y-100426692D01*
X100405468Y-100200000D01*
X100385635Y-99973308D01*
X100326739Y-99753504D01*
X100320259Y-99739608D01*
X100232891Y-99552247D01*
X100232889Y-99552244D01*
X100230568Y-99547266D01*
X100100047Y-99360861D01*
X99939139Y-99199953D01*
X99752734Y-99069432D01*
X99747756Y-99067111D01*
X99747753Y-99067109D01*
X99551478Y-98975584D01*
X99551476Y-98975583D01*
X99546496Y-98973261D01*
X99541188Y-98971839D01*
X99541186Y-98971838D01*
X99332007Y-98915789D01*
X99332005Y-98915789D01*
X99326692Y-98914365D01*
X99227698Y-98905704D01*
X99159508Y-98899738D01*
X99159501Y-98899738D01*
X99156784Y-98899500D01*
X99043216Y-98899500D01*
X99040499Y-98899738D01*
X99040492Y-98899738D01*
X98972302Y-98905704D01*
X98873308Y-98914365D01*
X98867995Y-98915789D01*
X98867993Y-98915789D01*
X98658814Y-98971838D01*
X98658812Y-98971839D01*
X98653504Y-98973261D01*
X98648524Y-98975583D01*
X98648522Y-98975584D01*
X98452247Y-99067109D01*
X98452244Y-99067111D01*
X98447266Y-99069432D01*
X98260861Y-99199953D01*
X98099953Y-99360861D01*
X97969432Y-99547266D01*
X97967111Y-99552244D01*
X97967109Y-99552247D01*
X97879741Y-99739608D01*
X97873261Y-99753504D01*
X97814365Y-99973308D01*
X97794532Y-100200000D01*
X95750500Y-100200000D01*
X95750500Y-99898159D01*
X95735480Y-99744970D01*
X95675935Y-99547749D01*
X95579218Y-99365849D01*
X95453483Y-99211683D01*
X95452906Y-99210975D01*
X95452903Y-99210972D01*
X95449011Y-99206200D01*
X95374679Y-99144707D01*
X95295025Y-99078811D01*
X95295021Y-99078809D01*
X95290275Y-99074882D01*
X95109055Y-98976897D01*
X94912254Y-98915977D01*
X94906129Y-98915333D01*
X94906128Y-98915333D01*
X94713498Y-98895087D01*
X94713496Y-98895087D01*
X94707369Y-98894443D01*
X94620529Y-98902346D01*
X94508342Y-98912555D01*
X94508339Y-98912556D01*
X94502203Y-98913114D01*
X94304572Y-98971280D01*
X94122002Y-99066726D01*
X94117201Y-99070586D01*
X94117198Y-99070588D01*
X93966254Y-99191950D01*
X93961447Y-99195815D01*
X93829024Y-99353630D01*
X93826056Y-99359028D01*
X93826053Y-99359033D01*
X93747161Y-99502538D01*
X93729776Y-99534162D01*
X93667484Y-99730532D01*
X93666798Y-99736649D01*
X93666797Y-99736653D01*
X93652197Y-99866819D01*
X93649500Y-99890864D01*
X93649500Y-100501841D01*
X92700000Y-100501841D01*
X92700000Y-99976454D01*
X92720002Y-99908333D01*
X92736905Y-99887359D01*
X96775227Y-95849037D01*
X96796682Y-95825153D01*
X96813585Y-95804179D01*
X96867846Y-95700450D01*
X96887848Y-95632329D01*
X96900000Y-95547810D01*
X96900000Y-94052190D01*
X96898282Y-94020127D01*
X96895403Y-93993344D01*
X96860423Y-93881629D01*
X96856706Y-93874821D01*
X96856473Y-93874394D01*
X106490314Y-93874394D01*
X106499143Y-93886014D01*
X106703970Y-94034830D01*
X106710650Y-94039070D01*
X106969234Y-94181228D01*
X106976369Y-94184585D01*
X107250746Y-94293219D01*
X107258237Y-94295653D01*
X107544059Y-94369039D01*
X107551830Y-94370521D01*
X107844570Y-94407503D01*
X107852460Y-94408000D01*
X108147540Y-94408000D01*
X108155430Y-94407503D01*
X108448170Y-94370521D01*
X108455941Y-94369039D01*
X108741763Y-94295653D01*
X108749254Y-94293219D01*
X109023631Y-94184585D01*
X109030766Y-94181228D01*
X109289350Y-94039070D01*
X109296030Y-94034830D01*
X109501230Y-93885744D01*
X109509653Y-93874821D01*
X109502749Y-93861960D01*
X108012810Y-92372020D01*
X107998869Y-92364408D01*
X107997034Y-92364539D01*
X107990420Y-92368790D01*
X106496927Y-93862284D01*
X106490314Y-93874394D01*
X96856473Y-93874394D01*
X96828553Y-93823265D01*
X96828552Y-93823263D01*
X96826397Y-93819317D01*
X96821284Y-93812487D01*
X96777924Y-93754565D01*
X96777920Y-93754560D01*
X96775227Y-93750963D01*
X95849037Y-92824773D01*
X95825153Y-92803318D01*
X95804179Y-92786415D01*
X95720312Y-92742544D01*
X95705935Y-92735023D01*
X95705933Y-92735022D01*
X95700450Y-92732154D01*
X95694512Y-92730411D01*
X95694511Y-92730410D01*
X95636641Y-92713418D01*
X95636640Y-92713418D01*
X95632329Y-92712152D01*
X95627889Y-92711514D01*
X95627886Y-92711513D01*
X95552256Y-92700639D01*
X95552253Y-92700639D01*
X95547810Y-92700000D01*
X91452190Y-92700000D01*
X91450534Y-92700089D01*
X91450524Y-92700089D01*
X91427853Y-92701304D01*
X91420127Y-92701718D01*
X91418456Y-92701898D01*
X91418439Y-92701899D01*
X91404485Y-92703399D01*
X91393344Y-92704597D01*
X91281629Y-92739577D01*
X91276197Y-92742543D01*
X91276195Y-92742544D01*
X91230614Y-92767434D01*
X91219317Y-92773603D01*
X91215717Y-92776298D01*
X91154565Y-92822076D01*
X91154560Y-92822080D01*
X91150963Y-92824773D01*
X89624773Y-94350963D01*
X89603318Y-94374847D01*
X89586415Y-94395821D01*
X89583544Y-94401310D01*
X89537647Y-94489049D01*
X89488348Y-94540139D01*
X89419255Y-94556465D01*
X89352302Y-94532845D01*
X89308749Y-94476777D01*
X89300000Y-94430646D01*
X89300000Y-92037271D01*
X89301914Y-92015392D01*
X89302714Y-92010855D01*
X89303930Y-92003958D01*
X105587488Y-92003958D01*
X105606015Y-92298436D01*
X105607008Y-92306297D01*
X105662296Y-92596128D01*
X105664267Y-92603805D01*
X105755446Y-92884424D01*
X105758361Y-92891787D01*
X105883993Y-93158770D01*
X105887805Y-93165703D01*
X106045909Y-93414835D01*
X106050563Y-93421241D01*
X106115521Y-93499761D01*
X106128040Y-93508217D01*
X106138778Y-93502011D01*
X107627980Y-92012810D01*
X107634357Y-92001131D01*
X108364408Y-92001131D01*
X108364539Y-92002966D01*
X108368790Y-92009580D01*
X109860119Y-93500908D01*
X109873381Y-93508150D01*
X109883485Y-93500962D01*
X109949437Y-93421241D01*
X109954091Y-93414835D01*
X110112195Y-93165703D01*
X110116007Y-93158770D01*
X110217723Y-92942611D01*
X129744394Y-92942611D01*
X129762999Y-93111135D01*
X129821266Y-93270356D01*
X129915830Y-93411083D01*
X129921442Y-93416190D01*
X129921445Y-93416193D01*
X130035612Y-93520077D01*
X130035616Y-93520080D01*
X130041233Y-93525191D01*
X130047906Y-93528814D01*
X130047910Y-93528817D01*
X130183558Y-93602467D01*
X130183560Y-93602468D01*
X130190235Y-93606092D01*
X130197584Y-93608020D01*
X130346883Y-93647188D01*
X130346885Y-93647188D01*
X130354233Y-93649116D01*
X130440609Y-93650473D01*
X130516161Y-93651660D01*
X130516164Y-93651660D01*
X130523760Y-93651779D01*
X130531165Y-93650083D01*
X130531166Y-93650083D01*
X130591586Y-93636245D01*
X130689029Y-93613928D01*
X130840498Y-93537747D01*
X130969423Y-93427634D01*
X130973854Y-93421467D01*
X130978684Y-93416215D01*
X131039516Y-93379609D01*
X131071433Y-93375500D01*
X145921562Y-93375500D01*
X145989683Y-93395502D01*
X146010657Y-93412405D01*
X152661680Y-100063428D01*
X152695706Y-100125740D01*
X152697507Y-100168967D01*
X152694394Y-100192611D01*
X152712999Y-100361135D01*
X152771266Y-100520356D01*
X152775502Y-100526659D01*
X152775502Y-100526660D01*
X152788574Y-100546113D01*
X152865830Y-100661083D01*
X152871442Y-100666190D01*
X152871445Y-100666193D01*
X152985612Y-100770077D01*
X152985616Y-100770080D01*
X152991233Y-100775191D01*
X152997906Y-100778814D01*
X152997910Y-100778817D01*
X153133558Y-100852467D01*
X153133560Y-100852468D01*
X153140235Y-100856092D01*
X153147584Y-100858020D01*
X153296883Y-100897188D01*
X153296885Y-100897188D01*
X153304233Y-100899116D01*
X153390609Y-100900473D01*
X153466161Y-100901660D01*
X153466164Y-100901660D01*
X153473760Y-100901779D01*
X153481165Y-100900083D01*
X153481166Y-100900083D01*
X153607124Y-100871235D01*
X153639029Y-100863928D01*
X153790498Y-100787747D01*
X153919423Y-100677634D01*
X154018361Y-100539947D01*
X154026237Y-100520356D01*
X154078766Y-100389687D01*
X154078767Y-100389685D01*
X154081601Y-100382634D01*
X154105490Y-100214778D01*
X154105645Y-100200000D01*
X154104983Y-100194525D01*
X154101004Y-100161653D01*
X154085276Y-100031680D01*
X154025345Y-99873077D01*
X153929312Y-99733349D01*
X153919559Y-99724659D01*
X153808392Y-99625612D01*
X153808388Y-99625610D01*
X153802721Y-99620560D01*
X153652881Y-99541224D01*
X153488441Y-99499919D01*
X153480843Y-99499879D01*
X153480841Y-99499879D01*
X153383216Y-99499368D01*
X153352487Y-99499207D01*
X153284472Y-99478849D01*
X153264052Y-99462304D01*
X147676142Y-93874394D01*
X163490314Y-93874394D01*
X163499143Y-93886014D01*
X163703970Y-94034830D01*
X163710650Y-94039070D01*
X163969234Y-94181228D01*
X163976369Y-94184585D01*
X164250746Y-94293219D01*
X164258237Y-94295653D01*
X164544059Y-94369039D01*
X164551830Y-94370521D01*
X164844570Y-94407503D01*
X164852460Y-94408000D01*
X165147540Y-94408000D01*
X165155430Y-94407503D01*
X165448170Y-94370521D01*
X165455941Y-94369039D01*
X165741763Y-94295653D01*
X165749254Y-94293219D01*
X166023631Y-94184585D01*
X166030766Y-94181228D01*
X166289350Y-94039070D01*
X166296030Y-94034830D01*
X166501230Y-93885744D01*
X166509653Y-93874821D01*
X166502749Y-93861960D01*
X165012810Y-92372020D01*
X164998869Y-92364408D01*
X164997034Y-92364539D01*
X164990420Y-92368790D01*
X163496927Y-93862284D01*
X163490314Y-93874394D01*
X147676142Y-93874394D01*
X146403220Y-92601472D01*
X146381837Y-92590577D01*
X146364991Y-92580253D01*
X146353604Y-92571980D01*
X146345581Y-92566151D01*
X146336150Y-92563087D01*
X146336147Y-92563085D01*
X146322763Y-92558736D01*
X146304502Y-92551172D01*
X146291964Y-92544784D01*
X146291963Y-92544784D01*
X146283126Y-92540281D01*
X146259429Y-92536528D01*
X146240210Y-92531914D01*
X146217393Y-92524500D01*
X131071266Y-92524500D01*
X131003145Y-92504498D01*
X130980445Y-92484998D01*
X130979312Y-92483349D01*
X130967514Y-92472837D01*
X130858392Y-92375612D01*
X130858388Y-92375610D01*
X130852721Y-92370560D01*
X130841350Y-92364539D01*
X130716502Y-92298436D01*
X130702881Y-92291224D01*
X130538441Y-92249919D01*
X130530843Y-92249879D01*
X130530841Y-92249879D01*
X130453668Y-92249475D01*
X130368895Y-92249031D01*
X130361508Y-92250805D01*
X130361504Y-92250805D01*
X130218162Y-92285220D01*
X130204032Y-92288612D01*
X130197288Y-92292093D01*
X130197285Y-92292094D01*
X130060117Y-92362892D01*
X130053369Y-92366375D01*
X129925604Y-92477831D01*
X129921237Y-92484045D01*
X129841871Y-92596972D01*
X129828113Y-92616547D01*
X129766524Y-92774513D01*
X129765532Y-92782046D01*
X129765532Y-92782047D01*
X129759488Y-92827960D01*
X129744394Y-92942611D01*
X110217723Y-92942611D01*
X110241639Y-92891787D01*
X110244554Y-92884424D01*
X110335733Y-92603805D01*
X110337704Y-92596128D01*
X110392992Y-92306297D01*
X110393985Y-92298436D01*
X110412512Y-92003958D01*
X162587488Y-92003958D01*
X162606015Y-92298436D01*
X162607008Y-92306297D01*
X162662296Y-92596128D01*
X162664267Y-92603805D01*
X162755446Y-92884424D01*
X162758361Y-92891787D01*
X162883993Y-93158770D01*
X162887805Y-93165703D01*
X163045909Y-93414835D01*
X163050563Y-93421241D01*
X163115521Y-93499761D01*
X163128040Y-93508217D01*
X163138778Y-93502011D01*
X164627980Y-92012810D01*
X164634357Y-92001131D01*
X165364408Y-92001131D01*
X165364539Y-92002966D01*
X165368790Y-92009580D01*
X166860119Y-93500908D01*
X166873381Y-93508150D01*
X166883485Y-93500962D01*
X166949437Y-93421241D01*
X166954091Y-93414835D01*
X167112195Y-93165703D01*
X167116007Y-93158770D01*
X167241639Y-92891787D01*
X167244554Y-92884424D01*
X167335733Y-92603805D01*
X167337704Y-92596128D01*
X167392992Y-92306297D01*
X167393985Y-92298436D01*
X167412512Y-92003958D01*
X167412512Y-91996042D01*
X167393985Y-91701564D01*
X167392992Y-91693703D01*
X167337704Y-91403872D01*
X167335733Y-91396195D01*
X167244554Y-91115576D01*
X167241639Y-91108213D01*
X167116007Y-90841230D01*
X167112195Y-90834297D01*
X166954091Y-90585165D01*
X166949437Y-90578759D01*
X166884479Y-90500239D01*
X166871960Y-90491783D01*
X166861222Y-90497989D01*
X165372020Y-91987190D01*
X165364408Y-92001131D01*
X164634357Y-92001131D01*
X164635592Y-91998869D01*
X164635461Y-91997034D01*
X164631210Y-91990420D01*
X163139881Y-90499092D01*
X163126619Y-90491850D01*
X163116515Y-90499038D01*
X163050563Y-90578759D01*
X163045909Y-90585165D01*
X162887805Y-90834297D01*
X162883993Y-90841230D01*
X162758361Y-91108213D01*
X162755446Y-91115576D01*
X162664267Y-91396195D01*
X162662296Y-91403872D01*
X162607008Y-91693703D01*
X162606015Y-91701564D01*
X162587488Y-91996042D01*
X162587488Y-92003958D01*
X110412512Y-92003958D01*
X110412512Y-91996042D01*
X110393985Y-91701564D01*
X110392992Y-91693703D01*
X110337704Y-91403872D01*
X110335733Y-91396195D01*
X110244554Y-91115576D01*
X110241639Y-91108213D01*
X110116007Y-90841230D01*
X110112195Y-90834297D01*
X109954091Y-90585165D01*
X109949437Y-90578759D01*
X109884479Y-90500239D01*
X109871960Y-90491783D01*
X109861222Y-90497989D01*
X108372020Y-91987190D01*
X108364408Y-92001131D01*
X107634357Y-92001131D01*
X107635592Y-91998869D01*
X107635461Y-91997034D01*
X107631210Y-91990420D01*
X106139881Y-90499092D01*
X106126619Y-90491850D01*
X106116515Y-90499038D01*
X106050563Y-90578759D01*
X106045909Y-90585165D01*
X105887805Y-90834297D01*
X105883993Y-90841230D01*
X105758361Y-91108213D01*
X105755446Y-91115576D01*
X105664267Y-91396195D01*
X105662296Y-91403872D01*
X105607008Y-91693703D01*
X105606015Y-91701564D01*
X105587488Y-91996042D01*
X105587488Y-92003958D01*
X89303930Y-92003958D01*
X89304628Y-92000000D01*
X89302714Y-91989145D01*
X89302714Y-91978639D01*
X89301936Y-91965522D01*
X89316580Y-91704761D01*
X89318162Y-91690720D01*
X89328274Y-91631210D01*
X89366510Y-91406170D01*
X89369654Y-91392395D01*
X89449557Y-91115045D01*
X89454224Y-91101708D01*
X89564676Y-90835051D01*
X89570807Y-90822320D01*
X89710423Y-90569706D01*
X89717940Y-90557743D01*
X89884958Y-90322352D01*
X89893768Y-90311304D01*
X90060100Y-90125179D01*
X106490347Y-90125179D01*
X106497251Y-90138040D01*
X107467457Y-91108247D01*
X107987190Y-91627980D01*
X108001131Y-91635592D01*
X108002966Y-91635461D01*
X108009580Y-91631210D01*
X109503073Y-90137716D01*
X109509686Y-90125606D01*
X109509362Y-90125179D01*
X163490347Y-90125179D01*
X163497251Y-90138040D01*
X164467457Y-91108247D01*
X164987190Y-91627980D01*
X165001131Y-91635592D01*
X165002966Y-91635461D01*
X165009580Y-91631210D01*
X166503073Y-90137716D01*
X166509686Y-90125606D01*
X166500857Y-90113986D01*
X166296030Y-89965170D01*
X166289350Y-89960930D01*
X166030766Y-89818772D01*
X166023631Y-89815415D01*
X165749254Y-89706781D01*
X165741763Y-89704347D01*
X165455941Y-89630961D01*
X165448170Y-89629479D01*
X165155430Y-89592497D01*
X165147540Y-89592000D01*
X164852460Y-89592000D01*
X164844570Y-89592497D01*
X164551830Y-89629479D01*
X164544059Y-89630961D01*
X164258237Y-89704347D01*
X164250746Y-89706781D01*
X163976369Y-89815415D01*
X163969234Y-89818772D01*
X163710650Y-89960930D01*
X163703970Y-89965170D01*
X163498770Y-90114256D01*
X163490347Y-90125179D01*
X109509362Y-90125179D01*
X109500857Y-90113986D01*
X109296030Y-89965170D01*
X109289350Y-89960930D01*
X109030766Y-89818772D01*
X109023631Y-89815415D01*
X108749254Y-89706781D01*
X108741763Y-89704347D01*
X108455941Y-89630961D01*
X108448170Y-89629479D01*
X108155430Y-89592497D01*
X108147540Y-89592000D01*
X107852460Y-89592000D01*
X107844570Y-89592497D01*
X107551830Y-89629479D01*
X107544059Y-89630961D01*
X107258237Y-89704347D01*
X107250746Y-89706781D01*
X106976369Y-89815415D01*
X106969234Y-89818772D01*
X106710650Y-89960930D01*
X106703970Y-89965170D01*
X106498770Y-90114256D01*
X106490347Y-90125179D01*
X90060100Y-90125179D01*
X90086097Y-90096088D01*
X90096088Y-90086097D01*
X90311304Y-89893768D01*
X90322352Y-89884958D01*
X90557743Y-89717940D01*
X90569706Y-89710423D01*
X90670991Y-89654444D01*
X90822324Y-89570805D01*
X90835047Y-89564678D01*
X90937997Y-89522035D01*
X91101708Y-89454224D01*
X91115045Y-89449557D01*
X91392395Y-89369654D01*
X91406170Y-89366510D01*
X91548445Y-89342336D01*
X91690725Y-89318161D01*
X91704757Y-89316580D01*
X91965524Y-89301936D01*
X91978639Y-89302714D01*
X91989145Y-89302714D01*
X92000000Y-89304628D01*
X92015392Y-89301914D01*
X92037271Y-89300000D01*
X165962729Y-89300000D01*
X165984608Y-89301914D01*
G37*
%TD.AperFunction*%
%TD*%
%TA.AperFunction,Conductor*%
%TO.N,+VDC*%
G36*
X95615931Y-93020002D02*
G01*
X95636905Y-93036905D01*
X96563095Y-93963095D01*
X96597121Y-94025407D01*
X96600000Y-94052190D01*
X96600000Y-95547810D01*
X96579998Y-95615931D01*
X96563095Y-95636905D01*
X92400000Y-99800000D01*
X92400000Y-103200000D01*
X95942804Y-106742804D01*
X95972035Y-106788598D01*
X96012553Y-106899319D01*
X96100908Y-107030805D01*
X96218076Y-107137419D01*
X96357293Y-107213008D01*
X96364635Y-107214934D01*
X96364637Y-107214935D01*
X96399825Y-107224166D01*
X96456947Y-107256947D01*
X96800000Y-107600000D01*
X98147810Y-107600000D01*
X98215931Y-107620002D01*
X98236905Y-107636905D01*
X100000000Y-109400000D01*
X100947810Y-109400000D01*
X101015931Y-109420002D01*
X101036905Y-109436905D01*
X101131136Y-109531136D01*
X101165162Y-109593448D01*
X101160097Y-109664263D01*
X101150654Y-109677114D01*
X101137000Y-109719396D01*
X101137000Y-111879095D01*
X101140966Y-111892601D01*
X101154966Y-111894605D01*
X101263106Y-111878926D01*
X101274302Y-111876238D01*
X101455497Y-111814730D01*
X101465994Y-111810056D01*
X101632958Y-111716552D01*
X101642430Y-111710042D01*
X101789553Y-111587682D01*
X101797682Y-111579553D01*
X101920042Y-111432430D01*
X101926552Y-111422958D01*
X101964065Y-111355974D01*
X102014802Y-111306312D01*
X102084334Y-111291965D01*
X102150585Y-111317486D01*
X102192520Y-111374774D01*
X102200000Y-111417540D01*
X102200000Y-112074000D01*
X102179998Y-112142121D01*
X102126342Y-112188614D01*
X102074000Y-112200000D01*
X98652190Y-112200000D01*
X98584069Y-112179998D01*
X98563095Y-112163095D01*
X98512899Y-112112899D01*
X98478873Y-112050587D01*
X98483938Y-111979772D01*
X98526485Y-111922936D01*
X98583914Y-111899108D01*
X98723106Y-111878926D01*
X98734302Y-111876238D01*
X98915497Y-111814730D01*
X98925994Y-111810056D01*
X99092958Y-111716552D01*
X99102430Y-111710042D01*
X99249553Y-111587682D01*
X99257682Y-111579553D01*
X99380042Y-111432430D01*
X99386552Y-111422958D01*
X99480056Y-111255994D01*
X99484730Y-111245497D01*
X99546238Y-111064302D01*
X99548926Y-111053106D01*
X99564610Y-110944929D01*
X99564278Y-110942602D01*
X99912899Y-110942602D01*
X99914542Y-110967676D01*
X99916343Y-110979046D01*
X99963443Y-111164502D01*
X99967284Y-111175348D01*
X100047394Y-111349120D01*
X100053145Y-111359081D01*
X100163579Y-111515343D01*
X100171057Y-111524098D01*
X100308114Y-111657612D01*
X100317058Y-111664855D01*
X100476156Y-111771161D01*
X100486266Y-111776651D01*
X100662077Y-111852185D01*
X100673020Y-111855740D01*
X100859647Y-111897970D01*
X100866383Y-111898857D01*
X100880302Y-111895357D01*
X100880658Y-111894978D01*
X100883000Y-111885144D01*
X100883000Y-110945115D01*
X100878525Y-110929876D01*
X100877135Y-110928671D01*
X100869452Y-110927000D01*
X99929991Y-110927000D01*
X99914951Y-110931416D01*
X99912899Y-110942602D01*
X99564278Y-110942602D01*
X99562624Y-110930993D01*
X99549056Y-110927000D01*
X98469000Y-110927000D01*
X98400879Y-110906998D01*
X98354386Y-110853342D01*
X98343000Y-110801000D01*
X98343000Y-110654885D01*
X98597000Y-110654885D01*
X98601475Y-110670124D01*
X98602865Y-110671329D01*
X98610548Y-110673000D01*
X99548945Y-110673000D01*
X99563490Y-110668729D01*
X99565553Y-110656595D01*
X99565408Y-110655012D01*
X99915375Y-110655012D01*
X99917817Y-110669431D01*
X99930559Y-110673000D01*
X100864885Y-110673000D01*
X100880124Y-110668525D01*
X100881329Y-110667135D01*
X100883000Y-110659452D01*
X100883000Y-109719678D01*
X100879194Y-109706716D01*
X100864278Y-109704780D01*
X100728737Y-109728070D01*
X100717617Y-109731050D01*
X100538095Y-109797279D01*
X100527717Y-109802229D01*
X100363273Y-109900063D01*
X100353961Y-109906829D01*
X100210097Y-110032994D01*
X100202180Y-110041337D01*
X100083718Y-110191605D01*
X100077450Y-110201256D01*
X99988360Y-110370589D01*
X99983951Y-110381232D01*
X99927210Y-110563967D01*
X99924820Y-110575211D01*
X99915375Y-110655012D01*
X99565408Y-110655012D01*
X99560693Y-110603707D01*
X99558595Y-110592386D01*
X99506658Y-110408231D01*
X99502533Y-110397484D01*
X99417903Y-110225871D01*
X99411893Y-110216063D01*
X99297400Y-110062739D01*
X99289710Y-110054199D01*
X99149192Y-109924304D01*
X99140067Y-109917303D01*
X98978236Y-109815195D01*
X98967989Y-109809974D01*
X98790260Y-109739068D01*
X98779232Y-109735801D01*
X98614769Y-109703088D01*
X98601894Y-109704240D01*
X98597000Y-109719396D01*
X98597000Y-110654885D01*
X98343000Y-110654885D01*
X98343000Y-109719678D01*
X98339194Y-109706716D01*
X98324278Y-109704780D01*
X98188737Y-109728070D01*
X98177617Y-109731050D01*
X97998095Y-109797279D01*
X97987717Y-109802229D01*
X97823273Y-109900063D01*
X97813961Y-109906829D01*
X97670097Y-110032994D01*
X97662180Y-110041337D01*
X97543718Y-110191605D01*
X97537450Y-110201256D01*
X97448357Y-110370595D01*
X97442409Y-110384954D01*
X97397861Y-110440235D01*
X97330498Y-110462657D01*
X97261707Y-110445099D01*
X97213328Y-110393138D01*
X97200000Y-110336737D01*
X97200000Y-109800000D01*
X96600000Y-109200000D01*
X95052190Y-109200000D01*
X94984069Y-109179998D01*
X94963095Y-109163095D01*
X89836905Y-104036905D01*
X89802879Y-103974593D01*
X89800000Y-103947810D01*
X89800000Y-94652190D01*
X89820002Y-94584069D01*
X89836905Y-94563095D01*
X91363095Y-93036905D01*
X91425407Y-93002879D01*
X91452190Y-93000000D01*
X95547810Y-93000000D01*
X95615931Y-93020002D01*
G37*
%TD.AperFunction*%
%TD*%
%TA.AperFunction,Conductor*%
%TO.N,/Uout*%
G36*
X162415931Y-97420002D02*
G01*
X162436905Y-97436905D01*
X162657524Y-97657524D01*
X162691550Y-97719836D01*
X162686485Y-97790651D01*
X162643938Y-97847487D01*
X162577418Y-97872298D01*
X162531065Y-97866952D01*
X162413975Y-97830595D01*
X162402721Y-97828203D01*
X162239942Y-97808936D01*
X162232539Y-97808500D01*
X161412615Y-97808500D01*
X161397376Y-97812975D01*
X161396171Y-97814365D01*
X161394500Y-97822048D01*
X161394500Y-98817385D01*
X161398975Y-98832624D01*
X161400365Y-98833829D01*
X161408048Y-98835500D01*
X163298558Y-98835500D01*
X163311520Y-98831694D01*
X163313456Y-98816778D01*
X163287933Y-98668240D01*
X163284953Y-98657120D01*
X163266157Y-98606170D01*
X163261345Y-98535336D01*
X163295592Y-98473146D01*
X163358026Y-98439344D01*
X163428823Y-98444661D01*
X163473464Y-98473464D01*
X165563095Y-100563095D01*
X165597121Y-100625407D01*
X165600000Y-100652190D01*
X165600000Y-105547810D01*
X165579998Y-105615931D01*
X165563095Y-105636905D01*
X162836905Y-108363095D01*
X162774593Y-108397121D01*
X162747810Y-108400000D01*
X149600000Y-108400000D01*
X145636905Y-112363095D01*
X145574593Y-112397121D01*
X145547810Y-112400000D01*
X130326000Y-112400000D01*
X130257879Y-112379998D01*
X130211386Y-112326342D01*
X130200000Y-112274000D01*
X130200000Y-111210317D01*
X130220002Y-111142196D01*
X130273658Y-111095703D01*
X130343932Y-111085599D01*
X130408512Y-111115093D01*
X130444774Y-111168259D01*
X130447287Y-111175355D01*
X130527394Y-111349120D01*
X130533145Y-111359081D01*
X130643579Y-111515343D01*
X130651057Y-111524098D01*
X130788114Y-111657612D01*
X130797058Y-111664855D01*
X130956156Y-111771161D01*
X130966266Y-111776651D01*
X131142077Y-111852185D01*
X131153020Y-111855740D01*
X131339647Y-111897970D01*
X131346383Y-111898857D01*
X131360302Y-111895357D01*
X131360658Y-111894978D01*
X131363000Y-111885144D01*
X131363000Y-111879095D01*
X131617000Y-111879095D01*
X131620966Y-111892601D01*
X131634966Y-111894605D01*
X131743106Y-111878926D01*
X131754302Y-111876238D01*
X131935497Y-111814730D01*
X131945994Y-111810056D01*
X132112958Y-111716552D01*
X132122430Y-111710042D01*
X132269553Y-111587682D01*
X132277682Y-111579553D01*
X132400042Y-111432430D01*
X132406552Y-111422958D01*
X132500056Y-111255994D01*
X132504730Y-111245497D01*
X132566238Y-111064302D01*
X132568926Y-111053106D01*
X132584610Y-110944929D01*
X132584278Y-110942602D01*
X132932899Y-110942602D01*
X132934542Y-110967676D01*
X132936343Y-110979046D01*
X132983443Y-111164502D01*
X132987284Y-111175348D01*
X133067394Y-111349120D01*
X133073145Y-111359081D01*
X133183579Y-111515343D01*
X133191057Y-111524098D01*
X133328114Y-111657612D01*
X133337058Y-111664855D01*
X133496156Y-111771161D01*
X133506266Y-111776651D01*
X133682077Y-111852185D01*
X133693020Y-111855740D01*
X133879647Y-111897970D01*
X133886383Y-111898857D01*
X133900302Y-111895357D01*
X133900658Y-111894978D01*
X133903000Y-111885144D01*
X133903000Y-111879095D01*
X134157000Y-111879095D01*
X134160966Y-111892601D01*
X134174966Y-111894605D01*
X134283106Y-111878926D01*
X134294302Y-111876238D01*
X134475497Y-111814730D01*
X134485994Y-111810056D01*
X134652958Y-111716552D01*
X134662430Y-111710042D01*
X134809553Y-111587682D01*
X134817682Y-111579553D01*
X134940042Y-111432430D01*
X134946552Y-111422958D01*
X135040056Y-111255994D01*
X135044730Y-111245497D01*
X135106238Y-111064302D01*
X135108926Y-111053106D01*
X135124610Y-110944929D01*
X135124278Y-110942602D01*
X135472899Y-110942602D01*
X135474542Y-110967676D01*
X135476343Y-110979046D01*
X135523443Y-111164502D01*
X135527284Y-111175348D01*
X135607394Y-111349120D01*
X135613145Y-111359081D01*
X135723579Y-111515343D01*
X135731057Y-111524098D01*
X135868114Y-111657612D01*
X135877058Y-111664855D01*
X136036156Y-111771161D01*
X136046266Y-111776651D01*
X136222077Y-111852185D01*
X136233020Y-111855740D01*
X136419647Y-111897970D01*
X136426383Y-111898857D01*
X136440302Y-111895357D01*
X136440658Y-111894978D01*
X136443000Y-111885144D01*
X136443000Y-111879095D01*
X136697000Y-111879095D01*
X136700966Y-111892601D01*
X136714966Y-111894605D01*
X136823106Y-111878926D01*
X136834302Y-111876238D01*
X137015497Y-111814730D01*
X137025994Y-111810056D01*
X137192958Y-111716552D01*
X137202430Y-111710042D01*
X137251985Y-111668828D01*
X138006001Y-111668828D01*
X138007209Y-111681088D01*
X138018315Y-111736931D01*
X138027633Y-111759427D01*
X138069983Y-111822808D01*
X138087192Y-111840017D01*
X138150575Y-111882368D01*
X138173066Y-111891684D01*
X138228915Y-111902793D01*
X138241170Y-111904000D01*
X138964885Y-111904000D01*
X138980124Y-111899525D01*
X138981329Y-111898135D01*
X138983000Y-111890452D01*
X138983000Y-111885884D01*
X139237000Y-111885884D01*
X139241475Y-111901123D01*
X139242865Y-111902328D01*
X139250548Y-111903999D01*
X139978828Y-111903999D01*
X139991088Y-111902791D01*
X140046931Y-111891685D01*
X140069427Y-111882367D01*
X140132808Y-111840017D01*
X140150017Y-111822808D01*
X140192368Y-111759425D01*
X140201684Y-111736934D01*
X140212793Y-111681085D01*
X140214000Y-111668830D01*
X140214000Y-110945115D01*
X140209525Y-110929876D01*
X140208135Y-110928671D01*
X140200452Y-110927000D01*
X139255115Y-110927000D01*
X139239876Y-110931475D01*
X139238671Y-110932865D01*
X139237000Y-110940548D01*
X139237000Y-111885884D01*
X138983000Y-111885884D01*
X138983000Y-110945115D01*
X138978525Y-110929876D01*
X138977135Y-110928671D01*
X138969452Y-110927000D01*
X138024116Y-110927000D01*
X138008877Y-110931475D01*
X138007672Y-110932865D01*
X138006001Y-110940548D01*
X138006001Y-111668828D01*
X137251985Y-111668828D01*
X137349553Y-111587682D01*
X137357682Y-111579553D01*
X137480042Y-111432430D01*
X137486552Y-111422958D01*
X137580056Y-111255994D01*
X137584730Y-111245497D01*
X137646238Y-111064302D01*
X137648926Y-111053106D01*
X137664610Y-110944929D01*
X137662624Y-110930993D01*
X137649056Y-110927000D01*
X136715115Y-110927000D01*
X136699876Y-110931475D01*
X136698671Y-110932865D01*
X136697000Y-110940548D01*
X136697000Y-111879095D01*
X136443000Y-111879095D01*
X136443000Y-110945115D01*
X136438525Y-110929876D01*
X136437135Y-110928671D01*
X136429452Y-110927000D01*
X135489991Y-110927000D01*
X135474951Y-110931416D01*
X135472899Y-110942602D01*
X135124278Y-110942602D01*
X135122624Y-110930993D01*
X135109056Y-110927000D01*
X134175115Y-110927000D01*
X134159876Y-110931475D01*
X134158671Y-110932865D01*
X134157000Y-110940548D01*
X134157000Y-111879095D01*
X133903000Y-111879095D01*
X133903000Y-110945115D01*
X133898525Y-110929876D01*
X133897135Y-110928671D01*
X133889452Y-110927000D01*
X132949991Y-110927000D01*
X132934951Y-110931416D01*
X132932899Y-110942602D01*
X132584278Y-110942602D01*
X132582624Y-110930993D01*
X132569056Y-110927000D01*
X131635115Y-110927000D01*
X131619876Y-110931475D01*
X131618671Y-110932865D01*
X131617000Y-110940548D01*
X131617000Y-111879095D01*
X131363000Y-111879095D01*
X131363000Y-110654885D01*
X131617000Y-110654885D01*
X131621475Y-110670124D01*
X131622865Y-110671329D01*
X131630548Y-110673000D01*
X132568945Y-110673000D01*
X132583490Y-110668729D01*
X132585553Y-110656595D01*
X132585408Y-110655012D01*
X132935375Y-110655012D01*
X132937817Y-110669431D01*
X132950559Y-110673000D01*
X133884885Y-110673000D01*
X133900124Y-110668525D01*
X133901329Y-110667135D01*
X133903000Y-110659452D01*
X133903000Y-110654885D01*
X134157000Y-110654885D01*
X134161475Y-110670124D01*
X134162865Y-110671329D01*
X134170548Y-110673000D01*
X135108945Y-110673000D01*
X135123490Y-110668729D01*
X135125553Y-110656595D01*
X135125408Y-110655012D01*
X135475375Y-110655012D01*
X135477817Y-110669431D01*
X135490559Y-110673000D01*
X136424885Y-110673000D01*
X136440124Y-110668525D01*
X136441329Y-110667135D01*
X136443000Y-110659452D01*
X136443000Y-110654885D01*
X136697000Y-110654885D01*
X136701475Y-110670124D01*
X136702865Y-110671329D01*
X136710548Y-110673000D01*
X137648945Y-110673000D01*
X137663490Y-110668729D01*
X137665553Y-110656595D01*
X137665396Y-110654885D01*
X138006000Y-110654885D01*
X138010475Y-110670124D01*
X138011865Y-110671329D01*
X138019548Y-110673000D01*
X138964885Y-110673000D01*
X138980124Y-110668525D01*
X138981329Y-110667135D01*
X138983000Y-110659452D01*
X138983000Y-110654885D01*
X139237000Y-110654885D01*
X139241475Y-110670124D01*
X139242865Y-110671329D01*
X139250548Y-110673000D01*
X140195884Y-110673000D01*
X140211123Y-110668525D01*
X140212328Y-110667135D01*
X140213999Y-110659452D01*
X140213999Y-109931172D01*
X140212791Y-109918912D01*
X140201685Y-109863069D01*
X140192367Y-109840573D01*
X140150017Y-109777192D01*
X140132808Y-109759983D01*
X140069425Y-109717632D01*
X140046934Y-109708316D01*
X139991085Y-109697207D01*
X139978830Y-109696000D01*
X139255115Y-109696000D01*
X139239876Y-109700475D01*
X139238671Y-109701865D01*
X139237000Y-109709548D01*
X139237000Y-110654885D01*
X138983000Y-110654885D01*
X138983000Y-109714116D01*
X138978525Y-109698877D01*
X138977135Y-109697672D01*
X138969452Y-109696001D01*
X138241172Y-109696001D01*
X138228912Y-109697209D01*
X138173069Y-109708315D01*
X138150573Y-109717633D01*
X138087192Y-109759983D01*
X138069983Y-109777192D01*
X138027632Y-109840575D01*
X138018316Y-109863066D01*
X138007207Y-109918915D01*
X138006000Y-109931170D01*
X138006000Y-110654885D01*
X137665396Y-110654885D01*
X137660693Y-110603707D01*
X137658595Y-110592386D01*
X137606658Y-110408231D01*
X137602533Y-110397484D01*
X137517903Y-110225871D01*
X137511893Y-110216063D01*
X137397400Y-110062739D01*
X137389710Y-110054199D01*
X137249192Y-109924304D01*
X137240067Y-109917303D01*
X137078236Y-109815195D01*
X137067989Y-109809974D01*
X136890260Y-109739068D01*
X136879232Y-109735801D01*
X136714769Y-109703088D01*
X136701894Y-109704240D01*
X136697000Y-109719396D01*
X136697000Y-110654885D01*
X136443000Y-110654885D01*
X136443000Y-109719678D01*
X136439194Y-109706716D01*
X136424278Y-109704780D01*
X136288737Y-109728070D01*
X136277617Y-109731050D01*
X136098095Y-109797279D01*
X136087717Y-109802229D01*
X135923273Y-109900063D01*
X135913961Y-109906829D01*
X135770097Y-110032994D01*
X135762180Y-110041337D01*
X135643718Y-110191605D01*
X135637450Y-110201256D01*
X135548360Y-110370589D01*
X135543951Y-110381232D01*
X135487210Y-110563967D01*
X135484820Y-110575211D01*
X135475375Y-110655012D01*
X135125408Y-110655012D01*
X135120693Y-110603707D01*
X135118595Y-110592386D01*
X135066658Y-110408231D01*
X135062533Y-110397484D01*
X134977903Y-110225871D01*
X134971893Y-110216063D01*
X134857400Y-110062739D01*
X134849710Y-110054199D01*
X134709192Y-109924304D01*
X134700067Y-109917303D01*
X134538236Y-109815195D01*
X134527989Y-109809974D01*
X134350260Y-109739068D01*
X134339232Y-109735801D01*
X134174769Y-109703088D01*
X134161894Y-109704240D01*
X134157000Y-109719396D01*
X134157000Y-110654885D01*
X133903000Y-110654885D01*
X133903000Y-109719678D01*
X133899194Y-109706716D01*
X133884278Y-109704780D01*
X133748737Y-109728070D01*
X133737617Y-109731050D01*
X133558095Y-109797279D01*
X133547717Y-109802229D01*
X133383273Y-109900063D01*
X133373961Y-109906829D01*
X133230097Y-110032994D01*
X133222180Y-110041337D01*
X133103718Y-110191605D01*
X133097450Y-110201256D01*
X133008360Y-110370589D01*
X133003951Y-110381232D01*
X132947210Y-110563967D01*
X132944820Y-110575211D01*
X132935375Y-110655012D01*
X132585408Y-110655012D01*
X132580693Y-110603707D01*
X132578595Y-110592386D01*
X132526658Y-110408231D01*
X132522533Y-110397484D01*
X132437903Y-110225871D01*
X132431893Y-110216063D01*
X132317400Y-110062739D01*
X132309710Y-110054199D01*
X132169192Y-109924304D01*
X132160067Y-109917303D01*
X131998236Y-109815195D01*
X131987989Y-109809974D01*
X131810260Y-109739068D01*
X131799232Y-109735801D01*
X131634769Y-109703088D01*
X131621894Y-109704240D01*
X131617000Y-109719396D01*
X131617000Y-110654885D01*
X131363000Y-110654885D01*
X131363000Y-109719678D01*
X131358525Y-109704439D01*
X131340510Y-109688829D01*
X131302126Y-109629103D01*
X131302126Y-109558106D01*
X131328197Y-109510633D01*
X131562350Y-109243029D01*
X131622261Y-109204934D01*
X131657175Y-109200000D01*
X145600000Y-109200000D01*
X147963095Y-106836905D01*
X148025407Y-106802879D01*
X148052190Y-106800000D01*
X154102881Y-106800000D01*
X154149265Y-106808848D01*
X154150617Y-106809383D01*
X154157293Y-106813008D01*
X154310522Y-106853207D01*
X154394477Y-106854526D01*
X154461319Y-106855576D01*
X154461322Y-106855576D01*
X154468916Y-106855695D01*
X154623332Y-106820329D01*
X154634057Y-106814935D01*
X154637038Y-106813436D01*
X154693653Y-106800000D01*
X162000000Y-106800000D01*
X163600000Y-105200000D01*
X163600000Y-102800000D01*
X161400000Y-100600000D01*
X159652190Y-100600000D01*
X159584069Y-100579998D01*
X159563095Y-100563095D01*
X159036905Y-100036905D01*
X159002879Y-99974593D01*
X159000000Y-99947810D01*
X159000000Y-99291759D01*
X159020002Y-99223638D01*
X159073658Y-99177145D01*
X159143932Y-99167041D01*
X159208512Y-99196535D01*
X159247707Y-99259148D01*
X159250047Y-99267880D01*
X159319456Y-99456022D01*
X159324406Y-99466400D01*
X159426939Y-99638742D01*
X159433705Y-99648054D01*
X159565929Y-99798827D01*
X159574272Y-99806744D01*
X159731757Y-99930895D01*
X159741408Y-99937163D01*
X159918875Y-100030533D01*
X159929509Y-100034938D01*
X160121025Y-100094405D01*
X160132279Y-100096797D01*
X160295058Y-100116064D01*
X160302461Y-100116500D01*
X161122385Y-100116500D01*
X161137624Y-100112025D01*
X161138829Y-100110635D01*
X161140500Y-100102952D01*
X161140500Y-100098385D01*
X161394500Y-100098385D01*
X161398975Y-100113624D01*
X161400365Y-100114829D01*
X161408048Y-100116500D01*
X162218406Y-100116500D01*
X162224195Y-100116234D01*
X162372947Y-100102566D01*
X162384262Y-100100469D01*
X162577269Y-100046035D01*
X162588008Y-100041913D01*
X162767866Y-99953217D01*
X162777674Y-99947207D01*
X162938361Y-99827216D01*
X162946901Y-99819527D01*
X163083037Y-99672255D01*
X163090032Y-99663139D01*
X163197044Y-99493536D01*
X163202267Y-99483285D01*
X163276576Y-99297027D01*
X163279845Y-99285990D01*
X163315395Y-99107270D01*
X163314243Y-99094394D01*
X163299087Y-99089500D01*
X161412615Y-99089500D01*
X161397376Y-99093975D01*
X161396171Y-99095365D01*
X161394500Y-99103048D01*
X161394500Y-100098385D01*
X161140500Y-100098385D01*
X161140500Y-97826615D01*
X161136025Y-97811376D01*
X161134635Y-97810171D01*
X161126952Y-97808500D01*
X160316594Y-97808500D01*
X160310805Y-97808766D01*
X160162053Y-97822434D01*
X160150738Y-97824531D01*
X159957731Y-97878965D01*
X159946992Y-97883087D01*
X159767134Y-97971783D01*
X159757326Y-97977793D01*
X159596639Y-98097784D01*
X159588099Y-98105473D01*
X159451963Y-98252745D01*
X159444968Y-98261861D01*
X159337956Y-98431464D01*
X159332733Y-98441715D01*
X159258424Y-98627973D01*
X159255155Y-98639010D01*
X159249579Y-98667040D01*
X159216671Y-98729949D01*
X159154976Y-98765081D01*
X159084082Y-98761281D01*
X159026496Y-98719755D01*
X159000501Y-98653688D01*
X159000000Y-98642458D01*
X159000000Y-98252190D01*
X159020002Y-98184069D01*
X159036905Y-98163095D01*
X159763095Y-97436905D01*
X159825407Y-97402879D01*
X159852190Y-97400000D01*
X162347810Y-97400000D01*
X162415931Y-97420002D01*
G37*
%TD.AperFunction*%
%TD*%
M02*
